<mxfile host="Electron" modified="2024-05-31T13:47:51.525Z" agent="Mozilla/5.0 (X11; Linux x86_64) AppleWebKit/537.36 (KHTML, like Gecko) draw.io/24.4.8 Chrome/124.0.6367.207 Electron/30.0.6 Safari/537.36" etag="YOY6JNJ52xC7yFixtyMr" version="24.4.8" type="device">
  <diagram name="Page-1" id="KZN-zyBD-0XipZeYQRDT">
    <mxGraphModel dx="562" dy="325" grid="1" gridSize="10" guides="1" tooltips="1" connect="1" arrows="1" fold="1" page="1" pageScale="1" pageWidth="500" pageHeight="200" math="0" shadow="0">
      <root>
        <mxCell id="0" />
        <mxCell id="1" parent="0" />
        <mxCell id="q7dswaSPt2_tJIKAAf1v-191" value="" style="group" vertex="1" connectable="0" parent="1">
          <mxGeometry x="9" y="78" width="482.6" height="44.45" as="geometry" />
        </mxCell>
        <mxCell id="9eh16xiQdjSHdPkHuFP6-378" value="" style="rounded=0;whiteSpace=wrap;html=1;strokeColor=#aaaaaa;fillColor=#bfbfbf;strokeWidth=1;container=0;part=1;movable=1;resizable=1;rotatable=1;deletable=1;editable=1;locked=0;connectable=1;" parent="q7dswaSPt2_tJIKAAf1v-191" vertex="1">
          <mxGeometry width="482.6" height="44.45" as="geometry" />
        </mxCell>
        <mxCell id="9eh16xiQdjSHdPkHuFP6-379" value="" style="rounded=0;whiteSpace=wrap;html=1;strokeColor=#aaaaaa;fillColor=#222222;strokeWidth=1;movable=1;resizable=1;rotatable=1;deletable=1;editable=1;locked=0;connectable=1;container=0;" parent="q7dswaSPt2_tJIKAAf1v-191" vertex="1">
          <mxGeometry x="18" width="446.6" height="44.45" as="geometry" />
        </mxCell>
        <mxCell id="jP2WbbBxQBNUkDRbYnSl-231" value="" style="rounded=0;whiteSpace=wrap;html=1;fillColor=#000000;fontColor=#ffffff;strokeColor=none;container=0;" parent="q7dswaSPt2_tJIKAAf1v-191" vertex="1">
          <mxGeometry x="7" y="19.224999999999994" width="4" height="6" as="geometry" />
        </mxCell>
        <mxCell id="jP2WbbBxQBNUkDRbYnSl-232" value="" style="ellipse;whiteSpace=wrap;html=1;aspect=fixed;strokeColor=none;fillColor=#000000;container=0;" parent="q7dswaSPt2_tJIKAAf1v-191" vertex="1">
          <mxGeometry x="8" y="19.224999999999994" width="6" height="6" as="geometry" />
        </mxCell>
        <mxCell id="jP2WbbBxQBNUkDRbYnSl-233" value="" style="ellipse;whiteSpace=wrap;html=1;aspect=fixed;strokeColor=none;fillColor=#000000;container=0;" parent="q7dswaSPt2_tJIKAAf1v-191" vertex="1">
          <mxGeometry x="4" y="19.224999999999994" width="6" height="6" as="geometry" />
        </mxCell>
        <mxCell id="wEfOMtyTKLQo5fzBktWI-2" value="" style="rounded=0;whiteSpace=wrap;html=1;fillColor=#000000;fontColor=#ffffff;strokeColor=none;container=0;" parent="q7dswaSPt2_tJIKAAf1v-191" vertex="1">
          <mxGeometry x="471.59625000000017" y="19.224999999999994" width="4" height="6" as="geometry" />
        </mxCell>
        <mxCell id="wEfOMtyTKLQo5fzBktWI-3" value="" style="ellipse;whiteSpace=wrap;html=1;aspect=fixed;strokeColor=none;fillColor=#000000;container=0;" parent="q7dswaSPt2_tJIKAAf1v-191" vertex="1">
          <mxGeometry x="472.59625000000017" y="19.224999999999994" width="6" height="6" as="geometry" />
        </mxCell>
        <mxCell id="wEfOMtyTKLQo5fzBktWI-4" value="" style="ellipse;whiteSpace=wrap;html=1;aspect=fixed;strokeColor=none;fillColor=#000000;container=0;" parent="q7dswaSPt2_tJIKAAf1v-191" vertex="1">
          <mxGeometry x="468.59625000000017" y="19.224999999999994" width="6" height="6" as="geometry" />
        </mxCell>
        <mxCell id="jP2WbbBxQBNUkDRbYnSl-206" value="" style="rounded=0;whiteSpace=wrap;html=1;strokeColor=#aaaaaa;fillColor=#bfbfbf;strokeWidth=1;movable=1;resizable=1;rotatable=1;deletable=1;editable=1;locked=0;connectable=1;container=0;" parent="q7dswaSPt2_tJIKAAf1v-191" vertex="1">
          <mxGeometry x="7.99625" width="10" height="44.45" as="geometry" />
        </mxCell>
        <mxCell id="wEfOMtyTKLQo5fzBktWI-5" value="" style="rounded=0;whiteSpace=wrap;html=1;strokeColor=#aaaaaa;fillColor=#bfbfbf;strokeWidth=1;movable=1;resizable=1;rotatable=1;deletable=1;editable=1;locked=0;connectable=1;container=0;" parent="q7dswaSPt2_tJIKAAf1v-191" vertex="1">
          <mxGeometry x="464.60000000000014" width="10" height="44.45" as="geometry" />
        </mxCell>
        <mxCell id="s0dWRtyi07ZF37cMcm2--266" value="" style="rounded=0;whiteSpace=wrap;html=1;strokeColor=none;fillColor=#000000;strokeWidth=1;movable=1;resizable=1;rotatable=1;deletable=1;editable=1;locked=0;connectable=1;container=0;" parent="q7dswaSPt2_tJIKAAf1v-191" vertex="1">
          <mxGeometry x="349" y="0.5" width="10" height="5" as="geometry" />
        </mxCell>
        <mxCell id="s0dWRtyi07ZF37cMcm2--267" value="" style="rounded=0;whiteSpace=wrap;html=1;strokeColor=none;fillColor=#000000;strokeWidth=1;movable=1;resizable=1;rotatable=1;deletable=1;editable=1;locked=0;connectable=1;container=0;" parent="q7dswaSPt2_tJIKAAf1v-191" vertex="1">
          <mxGeometry x="360.5" y="0.5" width="10" height="5" as="geometry" />
        </mxCell>
        <mxCell id="s0dWRtyi07ZF37cMcm2--268" value="" style="rounded=0;whiteSpace=wrap;html=1;strokeColor=none;fillColor=#000000;strokeWidth=1;movable=1;resizable=1;rotatable=1;deletable=1;editable=1;locked=0;connectable=1;container=0;" parent="q7dswaSPt2_tJIKAAf1v-191" vertex="1">
          <mxGeometry x="372" y="0.5" width="10" height="5" as="geometry" />
        </mxCell>
        <mxCell id="s0dWRtyi07ZF37cMcm2--269" value="" style="rounded=0;whiteSpace=wrap;html=1;strokeColor=none;fillColor=#000000;strokeWidth=1;movable=1;resizable=1;rotatable=1;deletable=1;editable=1;locked=0;connectable=1;container=0;" parent="q7dswaSPt2_tJIKAAf1v-191" vertex="1">
          <mxGeometry x="383.5" y="0.5" width="10" height="5" as="geometry" />
        </mxCell>
        <mxCell id="s0dWRtyi07ZF37cMcm2--270" value="" style="rounded=0;whiteSpace=wrap;html=1;strokeColor=none;fillColor=#000000;strokeWidth=1;movable=1;resizable=1;rotatable=1;deletable=1;editable=1;locked=0;connectable=1;container=0;" parent="q7dswaSPt2_tJIKAAf1v-191" vertex="1">
          <mxGeometry x="395" y="0.5" width="10" height="5" as="geometry" />
        </mxCell>
        <mxCell id="s0dWRtyi07ZF37cMcm2--271" value="" style="rounded=0;whiteSpace=wrap;html=1;strokeColor=none;fillColor=#000000;strokeWidth=1;movable=1;resizable=1;rotatable=1;deletable=1;editable=1;locked=0;connectable=1;container=0;" parent="q7dswaSPt2_tJIKAAf1v-191" vertex="1">
          <mxGeometry x="406.5" y="0.5" width="10" height="5" as="geometry" />
        </mxCell>
        <mxCell id="s0dWRtyi07ZF37cMcm2--273" value="" style="rounded=0;whiteSpace=wrap;html=1;strokeColor=none;fillColor=#000000;strokeWidth=1;movable=1;resizable=1;rotatable=1;deletable=1;editable=1;locked=0;connectable=1;container=0;" parent="q7dswaSPt2_tJIKAAf1v-191" vertex="1">
          <mxGeometry x="418" y="0.5" width="10" height="5" as="geometry" />
        </mxCell>
        <mxCell id="s0dWRtyi07ZF37cMcm2--274" value="" style="rounded=0;whiteSpace=wrap;html=1;strokeColor=none;fillColor=#000000;strokeWidth=1;movable=1;resizable=1;rotatable=1;deletable=1;editable=1;locked=0;connectable=1;container=0;" parent="q7dswaSPt2_tJIKAAf1v-191" vertex="1">
          <mxGeometry x="267" y="0.5" width="10" height="5" as="geometry" />
        </mxCell>
        <mxCell id="s0dWRtyi07ZF37cMcm2--275" value="" style="rounded=0;whiteSpace=wrap;html=1;strokeColor=none;fillColor=#000000;strokeWidth=1;movable=1;resizable=1;rotatable=1;deletable=1;editable=1;locked=0;connectable=1;container=0;" parent="q7dswaSPt2_tJIKAAf1v-191" vertex="1">
          <mxGeometry x="278.5" y="0.5" width="10" height="5" as="geometry" />
        </mxCell>
        <mxCell id="s0dWRtyi07ZF37cMcm2--276" value="" style="rounded=0;whiteSpace=wrap;html=1;strokeColor=none;fillColor=#000000;strokeWidth=1;movable=1;resizable=1;rotatable=1;deletable=1;editable=1;locked=0;connectable=1;container=0;" parent="q7dswaSPt2_tJIKAAf1v-191" vertex="1">
          <mxGeometry x="290" y="0.5" width="10" height="5" as="geometry" />
        </mxCell>
        <mxCell id="s0dWRtyi07ZF37cMcm2--277" value="" style="rounded=0;whiteSpace=wrap;html=1;strokeColor=none;fillColor=#000000;strokeWidth=1;movable=1;resizable=1;rotatable=1;deletable=1;editable=1;locked=0;connectable=1;container=0;" parent="q7dswaSPt2_tJIKAAf1v-191" vertex="1">
          <mxGeometry x="301.5" y="0.5" width="10" height="5" as="geometry" />
        </mxCell>
        <mxCell id="s0dWRtyi07ZF37cMcm2--278" value="" style="rounded=0;whiteSpace=wrap;html=1;strokeColor=none;fillColor=#000000;strokeWidth=1;movable=1;resizable=1;rotatable=1;deletable=1;editable=1;locked=0;connectable=1;container=0;" parent="q7dswaSPt2_tJIKAAf1v-191" vertex="1">
          <mxGeometry x="313" y="0.5" width="10" height="5" as="geometry" />
        </mxCell>
        <mxCell id="s0dWRtyi07ZF37cMcm2--279" value="" style="rounded=0;whiteSpace=wrap;html=1;strokeColor=none;fillColor=#000000;strokeWidth=1;movable=1;resizable=1;rotatable=1;deletable=1;editable=1;locked=0;connectable=1;container=0;" parent="q7dswaSPt2_tJIKAAf1v-191" vertex="1">
          <mxGeometry x="324.5" y="0.5" width="10" height="5" as="geometry" />
        </mxCell>
        <mxCell id="s0dWRtyi07ZF37cMcm2--280" value="" style="rounded=0;whiteSpace=wrap;html=1;strokeColor=none;fillColor=#000000;strokeWidth=1;movable=1;resizable=1;rotatable=1;deletable=1;editable=1;locked=0;connectable=1;container=0;" parent="q7dswaSPt2_tJIKAAf1v-191" vertex="1">
          <mxGeometry x="336" y="0.5" width="10" height="5" as="geometry" />
        </mxCell>
        <mxCell id="s0dWRtyi07ZF37cMcm2--281" value="" style="rounded=0;whiteSpace=wrap;html=1;strokeColor=none;fillColor=#000000;strokeWidth=1;movable=1;resizable=1;rotatable=1;deletable=1;editable=1;locked=0;connectable=1;container=0;" parent="q7dswaSPt2_tJIKAAf1v-191" vertex="1">
          <mxGeometry x="185" y="0.5" width="10" height="5" as="geometry" />
        </mxCell>
        <mxCell id="s0dWRtyi07ZF37cMcm2--282" value="" style="rounded=0;whiteSpace=wrap;html=1;strokeColor=none;fillColor=#000000;strokeWidth=1;movable=1;resizable=1;rotatable=1;deletable=1;editable=1;locked=0;connectable=1;container=0;" parent="q7dswaSPt2_tJIKAAf1v-191" vertex="1">
          <mxGeometry x="196.5" y="0.5" width="10" height="5" as="geometry" />
        </mxCell>
        <mxCell id="s0dWRtyi07ZF37cMcm2--283" value="" style="rounded=0;whiteSpace=wrap;html=1;strokeColor=none;fillColor=#000000;strokeWidth=1;movable=1;resizable=1;rotatable=1;deletable=1;editable=1;locked=0;connectable=1;container=0;" parent="q7dswaSPt2_tJIKAAf1v-191" vertex="1">
          <mxGeometry x="208" y="0.5" width="10" height="5" as="geometry" />
        </mxCell>
        <mxCell id="s0dWRtyi07ZF37cMcm2--284" value="" style="rounded=0;whiteSpace=wrap;html=1;strokeColor=none;fillColor=#000000;strokeWidth=1;movable=1;resizable=1;rotatable=1;deletable=1;editable=1;locked=0;connectable=1;container=0;" parent="q7dswaSPt2_tJIKAAf1v-191" vertex="1">
          <mxGeometry x="219.5" y="0.5" width="10" height="5" as="geometry" />
        </mxCell>
        <mxCell id="s0dWRtyi07ZF37cMcm2--285" value="" style="rounded=0;whiteSpace=wrap;html=1;strokeColor=none;fillColor=#000000;strokeWidth=1;movable=1;resizable=1;rotatable=1;deletable=1;editable=1;locked=0;connectable=1;container=0;" parent="q7dswaSPt2_tJIKAAf1v-191" vertex="1">
          <mxGeometry x="231" y="0.5" width="10" height="5" as="geometry" />
        </mxCell>
        <mxCell id="s0dWRtyi07ZF37cMcm2--286" value="" style="rounded=0;whiteSpace=wrap;html=1;strokeColor=none;fillColor=#000000;strokeWidth=1;movable=1;resizable=1;rotatable=1;deletable=1;editable=1;locked=0;connectable=1;container=0;" parent="q7dswaSPt2_tJIKAAf1v-191" vertex="1">
          <mxGeometry x="242.5" y="0.5" width="10" height="5" as="geometry" />
        </mxCell>
        <mxCell id="s0dWRtyi07ZF37cMcm2--287" value="" style="rounded=0;whiteSpace=wrap;html=1;strokeColor=none;fillColor=#000000;strokeWidth=1;movable=1;resizable=1;rotatable=1;deletable=1;editable=1;locked=0;connectable=1;container=0;" parent="q7dswaSPt2_tJIKAAf1v-191" vertex="1">
          <mxGeometry x="254" y="0.5" width="10" height="5" as="geometry" />
        </mxCell>
        <mxCell id="s0dWRtyi07ZF37cMcm2--288" value="" style="rounded=0;whiteSpace=wrap;html=1;strokeColor=none;fillColor=#000000;strokeWidth=1;movable=1;resizable=1;rotatable=1;deletable=1;editable=1;locked=0;connectable=1;container=0;" parent="q7dswaSPt2_tJIKAAf1v-191" vertex="1">
          <mxGeometry x="103" y="0.5" width="10" height="5" as="geometry" />
        </mxCell>
        <mxCell id="s0dWRtyi07ZF37cMcm2--289" value="" style="rounded=0;whiteSpace=wrap;html=1;strokeColor=none;fillColor=#000000;strokeWidth=1;movable=1;resizable=1;rotatable=1;deletable=1;editable=1;locked=0;connectable=1;container=0;" parent="q7dswaSPt2_tJIKAAf1v-191" vertex="1">
          <mxGeometry x="114.5" y="0.5" width="10" height="5" as="geometry" />
        </mxCell>
        <mxCell id="s0dWRtyi07ZF37cMcm2--290" value="" style="rounded=0;whiteSpace=wrap;html=1;strokeColor=none;fillColor=#000000;strokeWidth=1;movable=1;resizable=1;rotatable=1;deletable=1;editable=1;locked=0;connectable=1;container=0;" parent="q7dswaSPt2_tJIKAAf1v-191" vertex="1">
          <mxGeometry x="126" y="0.5" width="10" height="5" as="geometry" />
        </mxCell>
        <mxCell id="s0dWRtyi07ZF37cMcm2--291" value="" style="rounded=0;whiteSpace=wrap;html=1;strokeColor=none;fillColor=#000000;strokeWidth=1;movable=1;resizable=1;rotatable=1;deletable=1;editable=1;locked=0;connectable=1;container=0;" parent="q7dswaSPt2_tJIKAAf1v-191" vertex="1">
          <mxGeometry x="137.5" y="0.5" width="10" height="5" as="geometry" />
        </mxCell>
        <mxCell id="s0dWRtyi07ZF37cMcm2--292" value="" style="rounded=0;whiteSpace=wrap;html=1;strokeColor=none;fillColor=#000000;strokeWidth=1;movable=1;resizable=1;rotatable=1;deletable=1;editable=1;locked=0;connectable=1;container=0;" parent="q7dswaSPt2_tJIKAAf1v-191" vertex="1">
          <mxGeometry x="149" y="0.5" width="10" height="5" as="geometry" />
        </mxCell>
        <mxCell id="s0dWRtyi07ZF37cMcm2--293" value="" style="rounded=0;whiteSpace=wrap;html=1;strokeColor=none;fillColor=#000000;strokeWidth=1;movable=1;resizable=1;rotatable=1;deletable=1;editable=1;locked=0;connectable=1;container=0;" parent="q7dswaSPt2_tJIKAAf1v-191" vertex="1">
          <mxGeometry x="160.5" y="0.5" width="10" height="5" as="geometry" />
        </mxCell>
        <mxCell id="s0dWRtyi07ZF37cMcm2--294" value="" style="rounded=0;whiteSpace=wrap;html=1;strokeColor=none;fillColor=#000000;strokeWidth=1;movable=1;resizable=1;rotatable=1;deletable=1;editable=1;locked=0;connectable=1;container=0;" parent="q7dswaSPt2_tJIKAAf1v-191" vertex="1">
          <mxGeometry x="172" y="0.5" width="10" height="5" as="geometry" />
        </mxCell>
        <mxCell id="s0dWRtyi07ZF37cMcm2--295" value="" style="rounded=0;whiteSpace=wrap;html=1;strokeColor=none;fillColor=#000000;strokeWidth=1;movable=1;resizable=1;rotatable=1;deletable=1;editable=1;locked=0;connectable=1;container=0;" parent="q7dswaSPt2_tJIKAAf1v-191" vertex="1">
          <mxGeometry x="21" y="0.5" width="10" height="5" as="geometry" />
        </mxCell>
        <mxCell id="s0dWRtyi07ZF37cMcm2--300" value="" style="rounded=0;whiteSpace=wrap;html=1;strokeColor=none;fillColor=#000000;strokeWidth=1;movable=1;resizable=1;rotatable=1;deletable=1;editable=1;locked=0;connectable=1;container=0;" parent="q7dswaSPt2_tJIKAAf1v-191" vertex="1">
          <mxGeometry x="78.5" y="0.5" width="10" height="5" as="geometry" />
        </mxCell>
        <mxCell id="s0dWRtyi07ZF37cMcm2--301" value="" style="rounded=0;whiteSpace=wrap;html=1;strokeColor=none;fillColor=#000000;strokeWidth=1;movable=1;resizable=1;rotatable=1;deletable=1;editable=1;locked=0;connectable=1;container=0;" parent="q7dswaSPt2_tJIKAAf1v-191" vertex="1">
          <mxGeometry x="90" y="0.5" width="10" height="5" as="geometry" />
        </mxCell>
        <mxCell id="s0dWRtyi07ZF37cMcm2--303" value="" style="rounded=0;whiteSpace=wrap;html=1;strokeColor=none;fillColor=#000000;strokeWidth=1;movable=1;resizable=1;rotatable=1;deletable=1;editable=1;locked=0;connectable=1;container=0;" parent="q7dswaSPt2_tJIKAAf1v-191" vertex="1">
          <mxGeometry x="44.75" y="0.5" width="20" height="5" as="geometry" />
        </mxCell>
        <mxCell id="s0dWRtyi07ZF37cMcm2--302" value="" style="rounded=0;whiteSpace=wrap;html=1;strokeColor=#000000;fillColor=#222222;strokeWidth=0.1;movable=1;resizable=1;rotatable=1;deletable=1;editable=1;locked=0;connectable=1;container=0;" parent="q7dswaSPt2_tJIKAAf1v-191" vertex="1">
          <mxGeometry x="31.75" y="1.5" width="46" height="4" as="geometry" />
        </mxCell>
        <mxCell id="s0dWRtyi07ZF37cMcm2--304" value="" style="rounded=0;whiteSpace=wrap;html=1;strokeColor=#000000;fillColor=#333333;strokeWidth=0.1;movable=1;resizable=1;rotatable=1;deletable=1;editable=1;locked=0;connectable=1;container=0;" parent="q7dswaSPt2_tJIKAAf1v-191" vertex="1">
          <mxGeometry x="39.75" y="1.5" width="30" height="4" as="geometry" />
        </mxCell>
        <mxCell id="s0dWRtyi07ZF37cMcm2--305" value="" style="rounded=1;whiteSpace=wrap;html=1;strokeColor=none;fillColor=#121212;strokeWidth=0.1;movable=1;resizable=1;rotatable=1;deletable=1;editable=1;locked=0;connectable=1;container=0;" parent="q7dswaSPt2_tJIKAAf1v-191" vertex="1">
          <mxGeometry x="431.75" y="5.5" width="31" height="20" as="geometry" />
        </mxCell>
        <mxCell id="s0dWRtyi07ZF37cMcm2--316" value="" style="ellipse;whiteSpace=wrap;html=1;strokeColor=#000000;fillColor=#60a917;fontColor=#ffffff;movable=1;resizable=1;rotatable=1;deletable=1;editable=1;locked=0;connectable=1;container=0;strokeWidth=0.1;" parent="q7dswaSPt2_tJIKAAf1v-191" vertex="1">
          <mxGeometry x="437.75" y="6.5" width="3" height="3" as="geometry" />
        </mxCell>
        <mxCell id="s0dWRtyi07ZF37cMcm2--322" value="" style="ellipse;whiteSpace=wrap;html=1;strokeColor=#000000;fillColor=#6F0000;fontColor=#ffffff;movable=1;resizable=1;rotatable=1;deletable=1;editable=1;locked=0;connectable=1;container=0;strokeWidth=0.1;" parent="q7dswaSPt2_tJIKAAf1v-191" vertex="1">
          <mxGeometry x="451.25" y="16.000434782608693" width="7" height="7" as="geometry" />
        </mxCell>
        <mxCell id="s0dWRtyi07ZF37cMcm2--323" value="" style="ellipse;whiteSpace=wrap;html=1;strokeColor=#000000;fillColor=#CCCCCC;fontColor=#ffffff;movable=1;resizable=1;rotatable=1;deletable=1;editable=1;locked=0;connectable=1;container=0;strokeWidth=0.1;" parent="q7dswaSPt2_tJIKAAf1v-191" vertex="1">
          <mxGeometry x="436.25" y="16.000434782608693" width="7" height="7" as="geometry" />
        </mxCell>
        <mxCell id="s0dWRtyi07ZF37cMcm2--326" value="" style="strokeWidth=0.1;html=1;shape=mxgraph.flowchart.database;whiteSpace=wrap;strokeColor=default;fillColor=none;movable=1;resizable=1;rotatable=1;deletable=1;editable=1;locked=0;connectable=1;container=0;" parent="q7dswaSPt2_tJIKAAf1v-191" vertex="1">
          <mxGeometry x="449.75" y="10.5" width="3" height="3" as="geometry" />
        </mxCell>
        <mxCell id="s0dWRtyi07ZF37cMcm2--327" value="" style="sketch=0;pointerEvents=1;shadow=0;dashed=0;html=1;strokeColor=none;fillColor=#FFFFFF;labelPosition=center;verticalLabelPosition=bottom;verticalAlign=top;align=center;outlineConnect=0;shape=mxgraph.vvd.infrastructure;movable=1;resizable=1;rotatable=1;deletable=1;editable=1;locked=0;connectable=1;container=0;" parent="q7dswaSPt2_tJIKAAf1v-191" vertex="1">
          <mxGeometry x="441.75" y="10.5" width="3" height="3" as="geometry" />
        </mxCell>
        <mxCell id="s0dWRtyi07ZF37cMcm2--330" value="" style="triangle;whiteSpace=wrap;html=1;rotation=-90;fillColor=none;strokeWidth=0.1;movable=1;resizable=1;rotatable=1;deletable=1;editable=1;locked=0;connectable=1;container=0;" parent="q7dswaSPt2_tJIKAAf1v-191" vertex="1">
          <mxGeometry x="437.75" y="10.5" width="3" height="3" as="geometry" />
        </mxCell>
        <mxCell id="s0dWRtyi07ZF37cMcm2--331" value="" style="sketch=0;html=1;strokeColor=default;shadow=0;fillColor=none;verticalAlign=top;labelPosition=center;verticalLabelPosition=bottom;shape=mxgraph.gcp2.a7_power;gradientColor=none;strokeWidth=0.1;movable=1;resizable=1;rotatable=1;deletable=1;editable=1;locked=0;connectable=1;container=0;" parent="q7dswaSPt2_tJIKAAf1v-191" vertex="1">
          <mxGeometry x="453.75" y="10.5" width="3" height="3" as="geometry" />
        </mxCell>
        <mxCell id="s0dWRtyi07ZF37cMcm2--332" value="" style="ellipse;whiteSpace=wrap;html=1;strokeColor=#000000;fillColor=#60a917;fontColor=#ffffff;movable=1;resizable=1;rotatable=1;deletable=1;editable=1;locked=0;connectable=1;container=0;strokeWidth=0.1;" parent="q7dswaSPt2_tJIKAAf1v-191" vertex="1">
          <mxGeometry x="441.75" y="6.5" width="3" height="3" as="geometry" />
        </mxCell>
        <mxCell id="s0dWRtyi07ZF37cMcm2--333" value="" style="ellipse;whiteSpace=wrap;html=1;strokeColor=#000000;fillColor=#60a917;fontColor=#ffffff;movable=1;resizable=1;rotatable=1;deletable=1;editable=1;locked=0;connectable=1;container=0;strokeWidth=0.1;" parent="q7dswaSPt2_tJIKAAf1v-191" vertex="1">
          <mxGeometry x="445.75" y="6.5" width="3" height="3" as="geometry" />
        </mxCell>
        <mxCell id="s0dWRtyi07ZF37cMcm2--334" value="" style="ellipse;whiteSpace=wrap;html=1;strokeColor=#000000;fillColor=#60a917;fontColor=#ffffff;movable=1;resizable=1;rotatable=1;deletable=1;editable=1;locked=0;connectable=1;container=0;strokeWidth=0.1;" parent="q7dswaSPt2_tJIKAAf1v-191" vertex="1">
          <mxGeometry x="449.75" y="6.5" width="3" height="3" as="geometry" />
        </mxCell>
        <mxCell id="s0dWRtyi07ZF37cMcm2--335" value="" style="ellipse;whiteSpace=wrap;html=1;strokeColor=#000000;fillColor=#60a917;fontColor=#ffffff;movable=1;resizable=1;rotatable=1;deletable=1;editable=1;locked=0;connectable=1;container=0;strokeWidth=0.1;" parent="q7dswaSPt2_tJIKAAf1v-191" vertex="1">
          <mxGeometry x="453.75" y="6.5" width="3" height="3" as="geometry" />
        </mxCell>
        <mxCell id="s0dWRtyi07ZF37cMcm2--336" value="" style="sketch=0;pointerEvents=1;shadow=0;dashed=0;html=1;strokeColor=none;fillColor=#FFFFFF;labelPosition=center;verticalLabelPosition=bottom;verticalAlign=top;align=center;outlineConnect=0;shape=mxgraph.vvd.infrastructure;movable=1;resizable=1;rotatable=1;deletable=1;editable=1;locked=0;connectable=1;container=0;" parent="q7dswaSPt2_tJIKAAf1v-191" vertex="1">
          <mxGeometry x="445.75" y="10.5" width="3" height="3" as="geometry" />
        </mxCell>
        <mxCell id="s0dWRtyi07ZF37cMcm2--337" value="" style="rounded=0;whiteSpace=wrap;html=1;strokeColor=#000000;fillColor=#333333;strokeWidth=0.1;movable=1;resizable=1;rotatable=1;deletable=1;editable=1;locked=0;connectable=1;container=0;" parent="q7dswaSPt2_tJIKAAf1v-191" vertex="1">
          <mxGeometry x="42.75" y="1.5" width="24" height="4" as="geometry" />
        </mxCell>
        <mxCell id="s0dWRtyi07ZF37cMcm2--64" value="" style="rounded=0;whiteSpace=wrap;html=1;strokeColor=none;fillColor=#000000;strokeWidth=1;movable=1;resizable=1;rotatable=1;deletable=1;editable=1;locked=0;connectable=1;container=0;" parent="q7dswaSPt2_tJIKAAf1v-191" vertex="1">
          <mxGeometry x="18.5" y="7.950000000000003" width="412" height="36" as="geometry" />
        </mxCell>
        <mxCell id="s0dWRtyi07ZF37cMcm2--306" value="" style="rounded=0;whiteSpace=wrap;html=1;strokeColor=#aaaaaa;fillColor=#000000;strokeWidth=0.1;movable=1;resizable=1;rotatable=1;deletable=1;editable=1;locked=0;connectable=1;container=0;" parent="q7dswaSPt2_tJIKAAf1v-191" vertex="1">
          <mxGeometry x="439.25" y="28" width="16" height="6" as="geometry" />
        </mxCell>
        <mxCell id="s0dWRtyi07ZF37cMcm2--307" value="" style="rounded=0;whiteSpace=wrap;html=1;strokeColor=none;fillColor=#0050ef;strokeWidth=0.5;fontColor=#ffffff;movable=1;resizable=1;rotatable=1;deletable=1;editable=1;locked=0;connectable=1;container=0;" parent="q7dswaSPt2_tJIKAAf1v-191" vertex="1">
          <mxGeometry x="440.75" y="31.25" width="13" height="1.5" as="geometry" />
        </mxCell>
        <mxCell id="s0dWRtyi07ZF37cMcm2--314" value="" style="rounded=0;whiteSpace=wrap;html=1;strokeColor=#aaaaaa;fillColor=#000000;strokeWidth=0.1;movable=1;resizable=1;rotatable=1;deletable=1;editable=1;locked=0;connectable=1;container=0;" parent="q7dswaSPt2_tJIKAAf1v-191" vertex="1">
          <mxGeometry x="439.25" y="36" width="16" height="6" as="geometry" />
        </mxCell>
        <mxCell id="s0dWRtyi07ZF37cMcm2--315" value="" style="rounded=0;whiteSpace=wrap;html=1;strokeColor=none;fillColor=#0050ef;strokeWidth=0.5;fontColor=#ffffff;movable=1;resizable=1;rotatable=1;deletable=1;editable=1;locked=0;connectable=1;container=0;" parent="q7dswaSPt2_tJIKAAf1v-191" vertex="1">
          <mxGeometry x="440.75" y="39.25" width="13" height="1.5" as="geometry" />
        </mxCell>
        <mxCell id="jYugRQpqX03XuYQ0I7Gw-276" value="" style="ellipse;whiteSpace=wrap;html=1;strokeColor=none;fillColor=#000000;fontColor=#ffffff;movable=1;resizable=1;rotatable=1;deletable=1;editable=1;locked=0;connectable=1;container=0;strokeWidth=2;" parent="q7dswaSPt2_tJIKAAf1v-191" vertex="1">
          <mxGeometry x="437.25" y="16.950434782608696" width="5" height="5" as="geometry" />
        </mxCell>
        <mxCell id="jYugRQpqX03XuYQ0I7Gw-279" value="" style="ellipse;whiteSpace=wrap;html=1;strokeColor=#CCCCCC;fillColor=#000000;fontColor=#ffffff;movable=1;resizable=1;rotatable=1;deletable=1;editable=1;locked=0;connectable=1;container=0;strokeWidth=1;" parent="q7dswaSPt2_tJIKAAf1v-191" vertex="1">
          <mxGeometry x="438.25" y="18.000434782608693" width="3" height="3" as="geometry" />
        </mxCell>
        <mxCell id="jYugRQpqX03XuYQ0I7Gw-280" value="" style="sketch=0;html=1;strokeColor=default;shadow=0;fillColor=none;verticalAlign=top;labelPosition=center;verticalLabelPosition=bottom;shape=mxgraph.gcp2.a7_power;gradientColor=none;strokeWidth=0.1;movable=1;resizable=1;rotatable=1;deletable=1;editable=1;locked=0;connectable=1;container=0;" parent="q7dswaSPt2_tJIKAAf1v-191" vertex="1">
          <mxGeometry x="457.75" y="21.5" width="3" height="3" as="geometry" />
        </mxCell>
        <mxCell id="jYugRQpqX03XuYQ0I7Gw-281" value="" style="sketch=0;pointerEvents=1;shadow=0;dashed=0;html=1;strokeColor=none;labelPosition=center;verticalLabelPosition=bottom;verticalAlign=top;align=center;fillColor=#FFFFFF;shape=mxgraph.mscae.enterprise.usb;movable=1;resizable=1;rotatable=1;deletable=1;editable=1;locked=0;connectable=1;container=0;" parent="q7dswaSPt2_tJIKAAf1v-191" vertex="1">
          <mxGeometry x="444.25" y="21.950000000000003" width="6" height="3" as="geometry" />
        </mxCell>
        <mxCell id="jYugRQpqX03XuYQ0I7Gw-282" value="UID" style="text;html=1;align=center;verticalAlign=middle;whiteSpace=wrap;rounded=0;fontSize=2;container=0;" parent="q7dswaSPt2_tJIKAAf1v-191" vertex="1">
          <mxGeometry x="431.75" y="21.5" width="8" height="4" as="geometry" />
        </mxCell>
        <mxCell id="q7dswaSPt2_tJIKAAf1v-19" value="" style="group" vertex="1" connectable="0" parent="q7dswaSPt2_tJIKAAf1v-191">
          <mxGeometry x="20.5" y="9.950000000000003" width="80" height="15" as="geometry" />
        </mxCell>
        <mxCell id="s0dWRtyi07ZF37cMcm2--1" value="" style="rounded=0;whiteSpace=wrap;html=1;strokeColor=none;fillColor=#222222;strokeWidth=1;movable=1;resizable=1;rotatable=1;deletable=1;editable=1;locked=0;connectable=1;container=0;" parent="q7dswaSPt2_tJIKAAf1v-19" vertex="1">
          <mxGeometry width="80" height="15" as="geometry" />
        </mxCell>
        <mxCell id="s0dWRtyi07ZF37cMcm2--39" value="" style="rounded=1;whiteSpace=wrap;html=1;strokeColor=none;fillColor=#008a00;fontColor=#ffffff;container=0;" parent="q7dswaSPt2_tJIKAAf1v-19" vertex="1">
          <mxGeometry x="77.25" y="9.999999999999996" width="2" height="3" as="geometry" />
        </mxCell>
        <mxCell id="s0dWRtyi07ZF37cMcm2--40" value="" style="rounded=1;whiteSpace=wrap;html=1;strokeColor=none;fillColor=#0050ef;fontColor=#ffffff;container=0;" parent="q7dswaSPt2_tJIKAAf1v-19" vertex="1">
          <mxGeometry x="77.25" y="2.049999999999997" width="2" height="3" as="geometry" />
        </mxCell>
        <mxCell id="q7dswaSPt2_tJIKAAf1v-1" value="" style="rounded=0;whiteSpace=wrap;html=1;strokeColor=none;fillColor=#111111;strokeWidth=1;movable=1;resizable=1;rotatable=1;deletable=1;editable=1;locked=0;connectable=1;container=0;gradientColor=none;gradientDirection=east;" vertex="1" parent="q7dswaSPt2_tJIKAAf1v-19">
          <mxGeometry x="19.5" y="0.9999999999999964" width="57" height="13" as="geometry" />
        </mxCell>
        <mxCell id="q7dswaSPt2_tJIKAAf1v-4" value="" style="rounded=1;whiteSpace=wrap;html=1;strokeColor=none;fillColor=#111111;arcSize=50;" vertex="1" parent="q7dswaSPt2_tJIKAAf1v-19">
          <mxGeometry x="1.5" y="1.0499999999999972" width="17" height="6" as="geometry" />
        </mxCell>
        <mxCell id="q7dswaSPt2_tJIKAAf1v-5" value="" style="rounded=1;whiteSpace=wrap;html=1;strokeColor=none;fillColor=#111111;arcSize=50;" vertex="1" parent="q7dswaSPt2_tJIKAAf1v-19">
          <mxGeometry x="1.5" y="7.9999999999999964" width="17" height="6" as="geometry" />
        </mxCell>
        <mxCell id="q7dswaSPt2_tJIKAAf1v-6" value="" style="rounded=1;whiteSpace=wrap;html=1;strokeColor=none;fillColor=#010101;arcSize=50;" vertex="1" parent="q7dswaSPt2_tJIKAAf1v-19">
          <mxGeometry x="20.5" y="1.0499999999999972" width="13" height="6" as="geometry" />
        </mxCell>
        <mxCell id="q7dswaSPt2_tJIKAAf1v-7" value="" style="rounded=1;whiteSpace=wrap;html=1;strokeColor=none;fillColor=#010101;arcSize=50;" vertex="1" parent="q7dswaSPt2_tJIKAAf1v-19">
          <mxGeometry x="20.5" y="7.9999999999999964" width="13" height="6" as="geometry" />
        </mxCell>
        <mxCell id="q7dswaSPt2_tJIKAAf1v-8" value="" style="rounded=1;whiteSpace=wrap;html=1;strokeColor=none;fillColor=#010101;arcSize=50;" vertex="1" parent="q7dswaSPt2_tJIKAAf1v-19">
          <mxGeometry x="34.5" y="1.0499999999999972" width="13" height="6" as="geometry" />
        </mxCell>
        <mxCell id="q7dswaSPt2_tJIKAAf1v-9" value="" style="rounded=1;whiteSpace=wrap;html=1;strokeColor=none;fillColor=#010101;arcSize=50;" vertex="1" parent="q7dswaSPt2_tJIKAAf1v-19">
          <mxGeometry x="34.5" y="7.9999999999999964" width="13" height="6" as="geometry" />
        </mxCell>
        <mxCell id="q7dswaSPt2_tJIKAAf1v-10" value="" style="rounded=1;whiteSpace=wrap;html=1;strokeColor=none;fillColor=#010101;arcSize=50;" vertex="1" parent="q7dswaSPt2_tJIKAAf1v-19">
          <mxGeometry x="48.5" y="1.0499999999999972" width="13" height="6" as="geometry" />
        </mxCell>
        <mxCell id="q7dswaSPt2_tJIKAAf1v-11" value="" style="rounded=1;whiteSpace=wrap;html=1;strokeColor=none;fillColor=#010101;arcSize=50;" vertex="1" parent="q7dswaSPt2_tJIKAAf1v-19">
          <mxGeometry x="48.5" y="8" width="13" height="6" as="geometry" />
        </mxCell>
        <mxCell id="q7dswaSPt2_tJIKAAf1v-12" value="" style="rounded=0;whiteSpace=wrap;html=1;strokeColor=none;fillColor=#FF9933;strokeWidth=1;movable=1;resizable=1;rotatable=1;deletable=1;editable=1;locked=0;connectable=1;container=0;gradientDirection=west;fontColor=#000000;gradientColor=#DE852C;" vertex="1" parent="q7dswaSPt2_tJIKAAf1v-19">
          <mxGeometry x="62.5" y="0.9999999999999964" width="12.5" height="13" as="geometry" />
        </mxCell>
        <mxCell id="q7dswaSPt2_tJIKAAf1v-13" value="" style="rounded=0;whiteSpace=wrap;html=1;strokeColor=none;fillColor=#DE852C;strokeWidth=1;movable=1;resizable=1;rotatable=1;deletable=1;editable=1;locked=0;connectable=1;container=0;gradientDirection=east;fontColor=#000000;shadow=1;glass=0;" vertex="1" parent="q7dswaSPt2_tJIKAAf1v-19">
          <mxGeometry x="73" y="1.0499999999999972" width="2" height="13" as="geometry" />
        </mxCell>
        <mxCell id="q7dswaSPt2_tJIKAAf1v-14" value="" style="ellipse;whiteSpace=wrap;html=1;strokeColor=#000000;fillColor=#999999;fontColor=#ffffff;movable=1;resizable=1;rotatable=1;deletable=1;editable=1;locked=0;connectable=1;container=0;strokeWidth=0.1;" vertex="1" parent="q7dswaSPt2_tJIKAAf1v-19">
          <mxGeometry x="66.25" y="5.049999999999997" width="5" height="5" as="geometry" />
        </mxCell>
        <mxCell id="q7dswaSPt2_tJIKAAf1v-15" value="" style="ellipse;whiteSpace=wrap;html=1;strokeColor=none;fillColor=#111111;fontColor=#ffffff;movable=1;resizable=1;rotatable=1;deletable=1;editable=1;locked=0;connectable=1;container=0;strokeWidth=0.1;" vertex="1" parent="q7dswaSPt2_tJIKAAf1v-19">
          <mxGeometry x="67.25" y="5.9999999999999964" width="3" height="3" as="geometry" />
        </mxCell>
        <mxCell id="q7dswaSPt2_tJIKAAf1v-16" value="" style="endArrow=none;html=1;rounded=0;strokeWidth=0.4;strokeColor=#111111;exitX=0;exitY=0.5;exitDx=0;exitDy=0;entryX=1;entryY=0.5;entryDx=0;entryDy=0;" edge="1" parent="q7dswaSPt2_tJIKAAf1v-19" source="q7dswaSPt2_tJIKAAf1v-14" target="q7dswaSPt2_tJIKAAf1v-14">
          <mxGeometry width="50" height="50" relative="1" as="geometry">
            <mxPoint x="59.5" y="7.049999999999997" as="sourcePoint" />
            <mxPoint x="79.5" y="7.049999999999997" as="targetPoint" />
          </mxGeometry>
        </mxCell>
        <mxCell id="q7dswaSPt2_tJIKAAf1v-17" value="&lt;span style=&quot;font-size: 4px;&quot;&gt;&lt;font style=&quot;font-size: 4px;&quot;&gt;NVMe&lt;/font&gt;&lt;/span&gt;" style="text;html=1;align=center;verticalAlign=middle;whiteSpace=wrap;rounded=0;fontSize=4;fontStyle=3" vertex="1" parent="q7dswaSPt2_tJIKAAf1v-19">
          <mxGeometry x="2.5" y="1.9999999999999964" width="15" height="4" as="geometry" />
        </mxCell>
        <mxCell id="q7dswaSPt2_tJIKAAf1v-20" value="" style="group" vertex="1" connectable="0" parent="q7dswaSPt2_tJIKAAf1v-191">
          <mxGeometry x="20.5" y="26.950000000000003" width="80" height="15" as="geometry" />
        </mxCell>
        <mxCell id="q7dswaSPt2_tJIKAAf1v-21" value="" style="rounded=0;whiteSpace=wrap;html=1;strokeColor=none;fillColor=#222222;strokeWidth=1;movable=1;resizable=1;rotatable=1;deletable=1;editable=1;locked=0;connectable=1;container=0;" vertex="1" parent="q7dswaSPt2_tJIKAAf1v-20">
          <mxGeometry width="80" height="15" as="geometry" />
        </mxCell>
        <mxCell id="q7dswaSPt2_tJIKAAf1v-22" value="" style="rounded=1;whiteSpace=wrap;html=1;strokeColor=none;fillColor=#008a00;fontColor=#ffffff;container=0;" vertex="1" parent="q7dswaSPt2_tJIKAAf1v-20">
          <mxGeometry x="77.25" y="9.999999999999996" width="2" height="3" as="geometry" />
        </mxCell>
        <mxCell id="q7dswaSPt2_tJIKAAf1v-23" value="" style="rounded=1;whiteSpace=wrap;html=1;strokeColor=none;fillColor=#0050ef;fontColor=#ffffff;container=0;" vertex="1" parent="q7dswaSPt2_tJIKAAf1v-20">
          <mxGeometry x="77.25" y="2.049999999999997" width="2" height="3" as="geometry" />
        </mxCell>
        <mxCell id="q7dswaSPt2_tJIKAAf1v-24" value="" style="rounded=0;whiteSpace=wrap;html=1;strokeColor=none;fillColor=#111111;strokeWidth=1;movable=1;resizable=1;rotatable=1;deletable=1;editable=1;locked=0;connectable=1;container=0;gradientColor=none;gradientDirection=east;" vertex="1" parent="q7dswaSPt2_tJIKAAf1v-20">
          <mxGeometry x="19.5" y="0.9999999999999964" width="57" height="13" as="geometry" />
        </mxCell>
        <mxCell id="q7dswaSPt2_tJIKAAf1v-25" value="" style="rounded=1;whiteSpace=wrap;html=1;strokeColor=none;fillColor=#111111;arcSize=50;" vertex="1" parent="q7dswaSPt2_tJIKAAf1v-20">
          <mxGeometry x="1.5" y="1.0499999999999972" width="17" height="6" as="geometry" />
        </mxCell>
        <mxCell id="q7dswaSPt2_tJIKAAf1v-26" value="" style="rounded=1;whiteSpace=wrap;html=1;strokeColor=none;fillColor=#111111;arcSize=50;" vertex="1" parent="q7dswaSPt2_tJIKAAf1v-20">
          <mxGeometry x="1.5" y="7.9999999999999964" width="17" height="6" as="geometry" />
        </mxCell>
        <mxCell id="q7dswaSPt2_tJIKAAf1v-27" value="" style="rounded=1;whiteSpace=wrap;html=1;strokeColor=none;fillColor=#010101;arcSize=50;" vertex="1" parent="q7dswaSPt2_tJIKAAf1v-20">
          <mxGeometry x="20.5" y="1.0499999999999972" width="13" height="6" as="geometry" />
        </mxCell>
        <mxCell id="q7dswaSPt2_tJIKAAf1v-28" value="" style="rounded=1;whiteSpace=wrap;html=1;strokeColor=none;fillColor=#010101;arcSize=50;" vertex="1" parent="q7dswaSPt2_tJIKAAf1v-20">
          <mxGeometry x="20.5" y="7.9999999999999964" width="13" height="6" as="geometry" />
        </mxCell>
        <mxCell id="q7dswaSPt2_tJIKAAf1v-29" value="" style="rounded=1;whiteSpace=wrap;html=1;strokeColor=none;fillColor=#010101;arcSize=50;" vertex="1" parent="q7dswaSPt2_tJIKAAf1v-20">
          <mxGeometry x="34.5" y="1.0499999999999972" width="13" height="6" as="geometry" />
        </mxCell>
        <mxCell id="q7dswaSPt2_tJIKAAf1v-30" value="" style="rounded=1;whiteSpace=wrap;html=1;strokeColor=none;fillColor=#010101;arcSize=50;" vertex="1" parent="q7dswaSPt2_tJIKAAf1v-20">
          <mxGeometry x="34.5" y="7.9999999999999964" width="13" height="6" as="geometry" />
        </mxCell>
        <mxCell id="q7dswaSPt2_tJIKAAf1v-31" value="" style="rounded=1;whiteSpace=wrap;html=1;strokeColor=none;fillColor=#010101;arcSize=50;" vertex="1" parent="q7dswaSPt2_tJIKAAf1v-20">
          <mxGeometry x="48.5" y="1.0499999999999972" width="13" height="6" as="geometry" />
        </mxCell>
        <mxCell id="q7dswaSPt2_tJIKAAf1v-32" value="" style="rounded=1;whiteSpace=wrap;html=1;strokeColor=none;fillColor=#010101;arcSize=50;" vertex="1" parent="q7dswaSPt2_tJIKAAf1v-20">
          <mxGeometry x="48.5" y="8" width="13" height="6" as="geometry" />
        </mxCell>
        <mxCell id="q7dswaSPt2_tJIKAAf1v-33" value="" style="rounded=0;whiteSpace=wrap;html=1;strokeColor=none;fillColor=#FF9933;strokeWidth=1;movable=1;resizable=1;rotatable=1;deletable=1;editable=1;locked=0;connectable=1;container=0;gradientDirection=west;fontColor=#000000;gradientColor=#DE852C;" vertex="1" parent="q7dswaSPt2_tJIKAAf1v-20">
          <mxGeometry x="62.5" y="0.9999999999999964" width="12.5" height="13" as="geometry" />
        </mxCell>
        <mxCell id="q7dswaSPt2_tJIKAAf1v-34" value="" style="rounded=0;whiteSpace=wrap;html=1;strokeColor=none;fillColor=#DE852C;strokeWidth=1;movable=1;resizable=1;rotatable=1;deletable=1;editable=1;locked=0;connectable=1;container=0;gradientDirection=east;fontColor=#000000;shadow=1;glass=0;" vertex="1" parent="q7dswaSPt2_tJIKAAf1v-20">
          <mxGeometry x="73" y="1.0499999999999972" width="2" height="13" as="geometry" />
        </mxCell>
        <mxCell id="q7dswaSPt2_tJIKAAf1v-35" value="" style="ellipse;whiteSpace=wrap;html=1;strokeColor=#000000;fillColor=#999999;fontColor=#ffffff;movable=1;resizable=1;rotatable=1;deletable=1;editable=1;locked=0;connectable=1;container=0;strokeWidth=0.1;" vertex="1" parent="q7dswaSPt2_tJIKAAf1v-20">
          <mxGeometry x="66.25" y="5.049999999999997" width="5" height="5" as="geometry" />
        </mxCell>
        <mxCell id="q7dswaSPt2_tJIKAAf1v-36" value="" style="ellipse;whiteSpace=wrap;html=1;strokeColor=none;fillColor=#111111;fontColor=#ffffff;movable=1;resizable=1;rotatable=1;deletable=1;editable=1;locked=0;connectable=1;container=0;strokeWidth=0.1;" vertex="1" parent="q7dswaSPt2_tJIKAAf1v-20">
          <mxGeometry x="67.25" y="5.9999999999999964" width="3" height="3" as="geometry" />
        </mxCell>
        <mxCell id="q7dswaSPt2_tJIKAAf1v-37" value="" style="endArrow=none;html=1;rounded=0;strokeWidth=0.4;strokeColor=#111111;exitX=0;exitY=0.5;exitDx=0;exitDy=0;entryX=1;entryY=0.5;entryDx=0;entryDy=0;" edge="1" parent="q7dswaSPt2_tJIKAAf1v-20" source="q7dswaSPt2_tJIKAAf1v-35" target="q7dswaSPt2_tJIKAAf1v-35">
          <mxGeometry width="50" height="50" relative="1" as="geometry">
            <mxPoint x="59.5" y="7.049999999999997" as="sourcePoint" />
            <mxPoint x="79.5" y="7.049999999999997" as="targetPoint" />
          </mxGeometry>
        </mxCell>
        <mxCell id="q7dswaSPt2_tJIKAAf1v-38" value="&lt;span style=&quot;font-size: 4px;&quot;&gt;&lt;font style=&quot;font-size: 4px;&quot;&gt;NVMe&lt;/font&gt;&lt;/span&gt;" style="text;html=1;align=center;verticalAlign=middle;whiteSpace=wrap;rounded=0;fontSize=4;fontStyle=3" vertex="1" parent="q7dswaSPt2_tJIKAAf1v-20">
          <mxGeometry x="2.5" y="1.9999999999999964" width="15" height="4" as="geometry" />
        </mxCell>
        <mxCell id="q7dswaSPt2_tJIKAAf1v-39" value="" style="group" vertex="1" connectable="0" parent="q7dswaSPt2_tJIKAAf1v-191">
          <mxGeometry x="102.5" y="9.950000000000003" width="80" height="15" as="geometry" />
        </mxCell>
        <mxCell id="q7dswaSPt2_tJIKAAf1v-40" value="" style="rounded=0;whiteSpace=wrap;html=1;strokeColor=none;fillColor=#222222;strokeWidth=1;movable=1;resizable=1;rotatable=1;deletable=1;editable=1;locked=0;connectable=1;container=0;" vertex="1" parent="q7dswaSPt2_tJIKAAf1v-39">
          <mxGeometry width="80" height="15" as="geometry" />
        </mxCell>
        <mxCell id="q7dswaSPt2_tJIKAAf1v-41" value="" style="rounded=1;whiteSpace=wrap;html=1;strokeColor=none;fillColor=#008a00;fontColor=#ffffff;container=0;" vertex="1" parent="q7dswaSPt2_tJIKAAf1v-39">
          <mxGeometry x="77.25" y="9.999999999999996" width="2" height="3" as="geometry" />
        </mxCell>
        <mxCell id="q7dswaSPt2_tJIKAAf1v-42" value="" style="rounded=1;whiteSpace=wrap;html=1;strokeColor=none;fillColor=#0050ef;fontColor=#ffffff;container=0;" vertex="1" parent="q7dswaSPt2_tJIKAAf1v-39">
          <mxGeometry x="77.25" y="2.049999999999997" width="2" height="3" as="geometry" />
        </mxCell>
        <mxCell id="q7dswaSPt2_tJIKAAf1v-43" value="" style="rounded=0;whiteSpace=wrap;html=1;strokeColor=none;fillColor=#111111;strokeWidth=1;movable=1;resizable=1;rotatable=1;deletable=1;editable=1;locked=0;connectable=1;container=0;gradientColor=none;gradientDirection=east;" vertex="1" parent="q7dswaSPt2_tJIKAAf1v-39">
          <mxGeometry x="19.5" y="0.9999999999999964" width="57" height="13" as="geometry" />
        </mxCell>
        <mxCell id="q7dswaSPt2_tJIKAAf1v-44" value="" style="rounded=1;whiteSpace=wrap;html=1;strokeColor=none;fillColor=#111111;arcSize=50;" vertex="1" parent="q7dswaSPt2_tJIKAAf1v-39">
          <mxGeometry x="1.5" y="1.0499999999999972" width="17" height="6" as="geometry" />
        </mxCell>
        <mxCell id="q7dswaSPt2_tJIKAAf1v-45" value="" style="rounded=1;whiteSpace=wrap;html=1;strokeColor=none;fillColor=#111111;arcSize=50;" vertex="1" parent="q7dswaSPt2_tJIKAAf1v-39">
          <mxGeometry x="1.5" y="7.9999999999999964" width="17" height="6" as="geometry" />
        </mxCell>
        <mxCell id="q7dswaSPt2_tJIKAAf1v-46" value="" style="rounded=1;whiteSpace=wrap;html=1;strokeColor=none;fillColor=#010101;arcSize=50;" vertex="1" parent="q7dswaSPt2_tJIKAAf1v-39">
          <mxGeometry x="20.5" y="1.0499999999999972" width="13" height="6" as="geometry" />
        </mxCell>
        <mxCell id="q7dswaSPt2_tJIKAAf1v-47" value="" style="rounded=1;whiteSpace=wrap;html=1;strokeColor=none;fillColor=#010101;arcSize=50;" vertex="1" parent="q7dswaSPt2_tJIKAAf1v-39">
          <mxGeometry x="20.5" y="7.9999999999999964" width="13" height="6" as="geometry" />
        </mxCell>
        <mxCell id="q7dswaSPt2_tJIKAAf1v-48" value="" style="rounded=1;whiteSpace=wrap;html=1;strokeColor=none;fillColor=#010101;arcSize=50;" vertex="1" parent="q7dswaSPt2_tJIKAAf1v-39">
          <mxGeometry x="34.5" y="1.0499999999999972" width="13" height="6" as="geometry" />
        </mxCell>
        <mxCell id="q7dswaSPt2_tJIKAAf1v-49" value="" style="rounded=1;whiteSpace=wrap;html=1;strokeColor=none;fillColor=#010101;arcSize=50;" vertex="1" parent="q7dswaSPt2_tJIKAAf1v-39">
          <mxGeometry x="34.5" y="7.9999999999999964" width="13" height="6" as="geometry" />
        </mxCell>
        <mxCell id="q7dswaSPt2_tJIKAAf1v-50" value="" style="rounded=1;whiteSpace=wrap;html=1;strokeColor=none;fillColor=#010101;arcSize=50;" vertex="1" parent="q7dswaSPt2_tJIKAAf1v-39">
          <mxGeometry x="48.5" y="1.0499999999999972" width="13" height="6" as="geometry" />
        </mxCell>
        <mxCell id="q7dswaSPt2_tJIKAAf1v-51" value="" style="rounded=1;whiteSpace=wrap;html=1;strokeColor=none;fillColor=#010101;arcSize=50;" vertex="1" parent="q7dswaSPt2_tJIKAAf1v-39">
          <mxGeometry x="48.5" y="8" width="13" height="6" as="geometry" />
        </mxCell>
        <mxCell id="q7dswaSPt2_tJIKAAf1v-52" value="" style="rounded=0;whiteSpace=wrap;html=1;strokeColor=none;fillColor=#FF9933;strokeWidth=1;movable=1;resizable=1;rotatable=1;deletable=1;editable=1;locked=0;connectable=1;container=0;gradientDirection=west;fontColor=#000000;gradientColor=#DE852C;" vertex="1" parent="q7dswaSPt2_tJIKAAf1v-39">
          <mxGeometry x="62.5" y="0.9999999999999964" width="12.5" height="13" as="geometry" />
        </mxCell>
        <mxCell id="q7dswaSPt2_tJIKAAf1v-53" value="" style="rounded=0;whiteSpace=wrap;html=1;strokeColor=none;fillColor=#DE852C;strokeWidth=1;movable=1;resizable=1;rotatable=1;deletable=1;editable=1;locked=0;connectable=1;container=0;gradientDirection=east;fontColor=#000000;shadow=1;glass=0;" vertex="1" parent="q7dswaSPt2_tJIKAAf1v-39">
          <mxGeometry x="73" y="1.0499999999999972" width="2" height="13" as="geometry" />
        </mxCell>
        <mxCell id="q7dswaSPt2_tJIKAAf1v-54" value="" style="ellipse;whiteSpace=wrap;html=1;strokeColor=#000000;fillColor=#999999;fontColor=#ffffff;movable=1;resizable=1;rotatable=1;deletable=1;editable=1;locked=0;connectable=1;container=0;strokeWidth=0.1;" vertex="1" parent="q7dswaSPt2_tJIKAAf1v-39">
          <mxGeometry x="66.25" y="5.049999999999997" width="5" height="5" as="geometry" />
        </mxCell>
        <mxCell id="q7dswaSPt2_tJIKAAf1v-55" value="" style="ellipse;whiteSpace=wrap;html=1;strokeColor=none;fillColor=#111111;fontColor=#ffffff;movable=1;resizable=1;rotatable=1;deletable=1;editable=1;locked=0;connectable=1;container=0;strokeWidth=0.1;" vertex="1" parent="q7dswaSPt2_tJIKAAf1v-39">
          <mxGeometry x="67.25" y="5.9999999999999964" width="3" height="3" as="geometry" />
        </mxCell>
        <mxCell id="q7dswaSPt2_tJIKAAf1v-56" value="" style="endArrow=none;html=1;rounded=0;strokeWidth=0.4;strokeColor=#111111;exitX=0;exitY=0.5;exitDx=0;exitDy=0;entryX=1;entryY=0.5;entryDx=0;entryDy=0;" edge="1" parent="q7dswaSPt2_tJIKAAf1v-39" source="q7dswaSPt2_tJIKAAf1v-54" target="q7dswaSPt2_tJIKAAf1v-54">
          <mxGeometry width="50" height="50" relative="1" as="geometry">
            <mxPoint x="59.5" y="7.049999999999997" as="sourcePoint" />
            <mxPoint x="79.5" y="7.049999999999997" as="targetPoint" />
          </mxGeometry>
        </mxCell>
        <mxCell id="q7dswaSPt2_tJIKAAf1v-57" value="&lt;span style=&quot;font-size: 4px;&quot;&gt;&lt;font style=&quot;font-size: 4px;&quot;&gt;NVMe&lt;/font&gt;&lt;/span&gt;" style="text;html=1;align=center;verticalAlign=middle;whiteSpace=wrap;rounded=0;fontSize=4;fontStyle=3" vertex="1" parent="q7dswaSPt2_tJIKAAf1v-39">
          <mxGeometry x="2.5" y="1.9999999999999964" width="15" height="4" as="geometry" />
        </mxCell>
        <mxCell id="q7dswaSPt2_tJIKAAf1v-58" value="" style="group" vertex="1" connectable="0" parent="q7dswaSPt2_tJIKAAf1v-191">
          <mxGeometry x="102.5" y="26.950000000000003" width="80" height="15" as="geometry" />
        </mxCell>
        <mxCell id="q7dswaSPt2_tJIKAAf1v-59" value="" style="rounded=0;whiteSpace=wrap;html=1;strokeColor=none;fillColor=#222222;strokeWidth=1;movable=1;resizable=1;rotatable=1;deletable=1;editable=1;locked=0;connectable=1;container=0;" vertex="1" parent="q7dswaSPt2_tJIKAAf1v-58">
          <mxGeometry width="80" height="15" as="geometry" />
        </mxCell>
        <mxCell id="q7dswaSPt2_tJIKAAf1v-60" value="" style="rounded=1;whiteSpace=wrap;html=1;strokeColor=none;fillColor=#008a00;fontColor=#ffffff;container=0;" vertex="1" parent="q7dswaSPt2_tJIKAAf1v-58">
          <mxGeometry x="77.25" y="9.999999999999996" width="2" height="3" as="geometry" />
        </mxCell>
        <mxCell id="q7dswaSPt2_tJIKAAf1v-61" value="" style="rounded=1;whiteSpace=wrap;html=1;strokeColor=none;fillColor=#0050ef;fontColor=#ffffff;container=0;" vertex="1" parent="q7dswaSPt2_tJIKAAf1v-58">
          <mxGeometry x="77.25" y="2.049999999999997" width="2" height="3" as="geometry" />
        </mxCell>
        <mxCell id="q7dswaSPt2_tJIKAAf1v-62" value="" style="rounded=0;whiteSpace=wrap;html=1;strokeColor=none;fillColor=#111111;strokeWidth=1;movable=1;resizable=1;rotatable=1;deletable=1;editable=1;locked=0;connectable=1;container=0;gradientColor=none;gradientDirection=east;" vertex="1" parent="q7dswaSPt2_tJIKAAf1v-58">
          <mxGeometry x="19.5" y="0.9999999999999964" width="57" height="13" as="geometry" />
        </mxCell>
        <mxCell id="q7dswaSPt2_tJIKAAf1v-63" value="" style="rounded=1;whiteSpace=wrap;html=1;strokeColor=none;fillColor=#111111;arcSize=50;" vertex="1" parent="q7dswaSPt2_tJIKAAf1v-58">
          <mxGeometry x="1.5" y="1.0499999999999972" width="17" height="6" as="geometry" />
        </mxCell>
        <mxCell id="q7dswaSPt2_tJIKAAf1v-64" value="" style="rounded=1;whiteSpace=wrap;html=1;strokeColor=none;fillColor=#111111;arcSize=50;" vertex="1" parent="q7dswaSPt2_tJIKAAf1v-58">
          <mxGeometry x="1.5" y="7.9999999999999964" width="17" height="6" as="geometry" />
        </mxCell>
        <mxCell id="q7dswaSPt2_tJIKAAf1v-65" value="" style="rounded=1;whiteSpace=wrap;html=1;strokeColor=none;fillColor=#010101;arcSize=50;" vertex="1" parent="q7dswaSPt2_tJIKAAf1v-58">
          <mxGeometry x="20.5" y="1.0499999999999972" width="13" height="6" as="geometry" />
        </mxCell>
        <mxCell id="q7dswaSPt2_tJIKAAf1v-66" value="" style="rounded=1;whiteSpace=wrap;html=1;strokeColor=none;fillColor=#010101;arcSize=50;" vertex="1" parent="q7dswaSPt2_tJIKAAf1v-58">
          <mxGeometry x="20.5" y="7.9999999999999964" width="13" height="6" as="geometry" />
        </mxCell>
        <mxCell id="q7dswaSPt2_tJIKAAf1v-67" value="" style="rounded=1;whiteSpace=wrap;html=1;strokeColor=none;fillColor=#010101;arcSize=50;" vertex="1" parent="q7dswaSPt2_tJIKAAf1v-58">
          <mxGeometry x="34.5" y="1.0499999999999972" width="13" height="6" as="geometry" />
        </mxCell>
        <mxCell id="q7dswaSPt2_tJIKAAf1v-68" value="" style="rounded=1;whiteSpace=wrap;html=1;strokeColor=none;fillColor=#010101;arcSize=50;" vertex="1" parent="q7dswaSPt2_tJIKAAf1v-58">
          <mxGeometry x="34.5" y="7.9999999999999964" width="13" height="6" as="geometry" />
        </mxCell>
        <mxCell id="q7dswaSPt2_tJIKAAf1v-69" value="" style="rounded=1;whiteSpace=wrap;html=1;strokeColor=none;fillColor=#010101;arcSize=50;" vertex="1" parent="q7dswaSPt2_tJIKAAf1v-58">
          <mxGeometry x="48.5" y="1.0499999999999972" width="13" height="6" as="geometry" />
        </mxCell>
        <mxCell id="q7dswaSPt2_tJIKAAf1v-70" value="" style="rounded=1;whiteSpace=wrap;html=1;strokeColor=none;fillColor=#010101;arcSize=50;" vertex="1" parent="q7dswaSPt2_tJIKAAf1v-58">
          <mxGeometry x="48.5" y="8" width="13" height="6" as="geometry" />
        </mxCell>
        <mxCell id="q7dswaSPt2_tJIKAAf1v-71" value="" style="rounded=0;whiteSpace=wrap;html=1;strokeColor=none;fillColor=#FF9933;strokeWidth=1;movable=1;resizable=1;rotatable=1;deletable=1;editable=1;locked=0;connectable=1;container=0;gradientDirection=west;fontColor=#000000;gradientColor=#DE852C;" vertex="1" parent="q7dswaSPt2_tJIKAAf1v-58">
          <mxGeometry x="62.5" y="0.9999999999999964" width="12.5" height="13" as="geometry" />
        </mxCell>
        <mxCell id="q7dswaSPt2_tJIKAAf1v-72" value="" style="rounded=0;whiteSpace=wrap;html=1;strokeColor=none;fillColor=#DE852C;strokeWidth=1;movable=1;resizable=1;rotatable=1;deletable=1;editable=1;locked=0;connectable=1;container=0;gradientDirection=east;fontColor=#000000;shadow=1;glass=0;" vertex="1" parent="q7dswaSPt2_tJIKAAf1v-58">
          <mxGeometry x="73" y="1.0499999999999972" width="2" height="13" as="geometry" />
        </mxCell>
        <mxCell id="q7dswaSPt2_tJIKAAf1v-73" value="" style="ellipse;whiteSpace=wrap;html=1;strokeColor=#000000;fillColor=#999999;fontColor=#ffffff;movable=1;resizable=1;rotatable=1;deletable=1;editable=1;locked=0;connectable=1;container=0;strokeWidth=0.1;" vertex="1" parent="q7dswaSPt2_tJIKAAf1v-58">
          <mxGeometry x="66.25" y="5.049999999999997" width="5" height="5" as="geometry" />
        </mxCell>
        <mxCell id="q7dswaSPt2_tJIKAAf1v-74" value="" style="ellipse;whiteSpace=wrap;html=1;strokeColor=none;fillColor=#111111;fontColor=#ffffff;movable=1;resizable=1;rotatable=1;deletable=1;editable=1;locked=0;connectable=1;container=0;strokeWidth=0.1;" vertex="1" parent="q7dswaSPt2_tJIKAAf1v-58">
          <mxGeometry x="67.25" y="5.9999999999999964" width="3" height="3" as="geometry" />
        </mxCell>
        <mxCell id="q7dswaSPt2_tJIKAAf1v-75" value="" style="endArrow=none;html=1;rounded=0;strokeWidth=0.4;strokeColor=#111111;exitX=0;exitY=0.5;exitDx=0;exitDy=0;entryX=1;entryY=0.5;entryDx=0;entryDy=0;" edge="1" parent="q7dswaSPt2_tJIKAAf1v-58" source="q7dswaSPt2_tJIKAAf1v-73" target="q7dswaSPt2_tJIKAAf1v-73">
          <mxGeometry width="50" height="50" relative="1" as="geometry">
            <mxPoint x="59.5" y="7.049999999999997" as="sourcePoint" />
            <mxPoint x="79.5" y="7.049999999999997" as="targetPoint" />
          </mxGeometry>
        </mxCell>
        <mxCell id="q7dswaSPt2_tJIKAAf1v-76" value="&lt;span style=&quot;font-size: 4px;&quot;&gt;&lt;font style=&quot;font-size: 4px;&quot;&gt;NVMe&lt;/font&gt;&lt;/span&gt;" style="text;html=1;align=center;verticalAlign=middle;whiteSpace=wrap;rounded=0;fontSize=4;fontStyle=3" vertex="1" parent="q7dswaSPt2_tJIKAAf1v-58">
          <mxGeometry x="2.5" y="1.9999999999999964" width="15" height="4" as="geometry" />
        </mxCell>
        <mxCell id="q7dswaSPt2_tJIKAAf1v-77" value="" style="group" vertex="1" connectable="0" parent="q7dswaSPt2_tJIKAAf1v-191">
          <mxGeometry x="184.5" y="9.950000000000003" width="80" height="15" as="geometry" />
        </mxCell>
        <mxCell id="q7dswaSPt2_tJIKAAf1v-78" value="" style="rounded=0;whiteSpace=wrap;html=1;strokeColor=none;fillColor=#222222;strokeWidth=1;movable=1;resizable=1;rotatable=1;deletable=1;editable=1;locked=0;connectable=1;container=0;" vertex="1" parent="q7dswaSPt2_tJIKAAf1v-77">
          <mxGeometry width="80" height="15" as="geometry" />
        </mxCell>
        <mxCell id="q7dswaSPt2_tJIKAAf1v-79" value="" style="rounded=1;whiteSpace=wrap;html=1;strokeColor=none;fillColor=#008a00;fontColor=#ffffff;container=0;" vertex="1" parent="q7dswaSPt2_tJIKAAf1v-77">
          <mxGeometry x="77.25" y="9.999999999999996" width="2" height="3" as="geometry" />
        </mxCell>
        <mxCell id="q7dswaSPt2_tJIKAAf1v-80" value="" style="rounded=1;whiteSpace=wrap;html=1;strokeColor=none;fillColor=#0050ef;fontColor=#ffffff;container=0;" vertex="1" parent="q7dswaSPt2_tJIKAAf1v-77">
          <mxGeometry x="77.25" y="2.049999999999997" width="2" height="3" as="geometry" />
        </mxCell>
        <mxCell id="q7dswaSPt2_tJIKAAf1v-81" value="" style="rounded=0;whiteSpace=wrap;html=1;strokeColor=none;fillColor=#111111;strokeWidth=1;movable=1;resizable=1;rotatable=1;deletable=1;editable=1;locked=0;connectable=1;container=0;gradientColor=none;gradientDirection=east;" vertex="1" parent="q7dswaSPt2_tJIKAAf1v-77">
          <mxGeometry x="19.5" y="0.9999999999999964" width="57" height="13" as="geometry" />
        </mxCell>
        <mxCell id="q7dswaSPt2_tJIKAAf1v-82" value="" style="rounded=1;whiteSpace=wrap;html=1;strokeColor=none;fillColor=#111111;arcSize=50;" vertex="1" parent="q7dswaSPt2_tJIKAAf1v-77">
          <mxGeometry x="1.5" y="1.0499999999999972" width="17" height="6" as="geometry" />
        </mxCell>
        <mxCell id="q7dswaSPt2_tJIKAAf1v-83" value="" style="rounded=1;whiteSpace=wrap;html=1;strokeColor=none;fillColor=#111111;arcSize=50;" vertex="1" parent="q7dswaSPt2_tJIKAAf1v-77">
          <mxGeometry x="1.5" y="7.9999999999999964" width="17" height="6" as="geometry" />
        </mxCell>
        <mxCell id="q7dswaSPt2_tJIKAAf1v-84" value="" style="rounded=1;whiteSpace=wrap;html=1;strokeColor=none;fillColor=#010101;arcSize=50;" vertex="1" parent="q7dswaSPt2_tJIKAAf1v-77">
          <mxGeometry x="20.5" y="1.0499999999999972" width="13" height="6" as="geometry" />
        </mxCell>
        <mxCell id="q7dswaSPt2_tJIKAAf1v-85" value="" style="rounded=1;whiteSpace=wrap;html=1;strokeColor=none;fillColor=#010101;arcSize=50;" vertex="1" parent="q7dswaSPt2_tJIKAAf1v-77">
          <mxGeometry x="20.5" y="7.9999999999999964" width="13" height="6" as="geometry" />
        </mxCell>
        <mxCell id="q7dswaSPt2_tJIKAAf1v-86" value="" style="rounded=1;whiteSpace=wrap;html=1;strokeColor=none;fillColor=#010101;arcSize=50;" vertex="1" parent="q7dswaSPt2_tJIKAAf1v-77">
          <mxGeometry x="34.5" y="1.0499999999999972" width="13" height="6" as="geometry" />
        </mxCell>
        <mxCell id="q7dswaSPt2_tJIKAAf1v-87" value="" style="rounded=1;whiteSpace=wrap;html=1;strokeColor=none;fillColor=#010101;arcSize=50;" vertex="1" parent="q7dswaSPt2_tJIKAAf1v-77">
          <mxGeometry x="34.5" y="7.9999999999999964" width="13" height="6" as="geometry" />
        </mxCell>
        <mxCell id="q7dswaSPt2_tJIKAAf1v-88" value="" style="rounded=1;whiteSpace=wrap;html=1;strokeColor=none;fillColor=#010101;arcSize=50;" vertex="1" parent="q7dswaSPt2_tJIKAAf1v-77">
          <mxGeometry x="48.5" y="1.0499999999999972" width="13" height="6" as="geometry" />
        </mxCell>
        <mxCell id="q7dswaSPt2_tJIKAAf1v-89" value="" style="rounded=1;whiteSpace=wrap;html=1;strokeColor=none;fillColor=#010101;arcSize=50;" vertex="1" parent="q7dswaSPt2_tJIKAAf1v-77">
          <mxGeometry x="48.5" y="8" width="13" height="6" as="geometry" />
        </mxCell>
        <mxCell id="q7dswaSPt2_tJIKAAf1v-90" value="" style="rounded=0;whiteSpace=wrap;html=1;strokeColor=none;fillColor=#FF9933;strokeWidth=1;movable=1;resizable=1;rotatable=1;deletable=1;editable=1;locked=0;connectable=1;container=0;gradientDirection=west;fontColor=#000000;gradientColor=#DE852C;" vertex="1" parent="q7dswaSPt2_tJIKAAf1v-77">
          <mxGeometry x="62.5" y="0.9999999999999964" width="12.5" height="13" as="geometry" />
        </mxCell>
        <mxCell id="q7dswaSPt2_tJIKAAf1v-91" value="" style="rounded=0;whiteSpace=wrap;html=1;strokeColor=none;fillColor=#DE852C;strokeWidth=1;movable=1;resizable=1;rotatable=1;deletable=1;editable=1;locked=0;connectable=1;container=0;gradientDirection=east;fontColor=#000000;shadow=1;glass=0;" vertex="1" parent="q7dswaSPt2_tJIKAAf1v-77">
          <mxGeometry x="73" y="1.0499999999999972" width="2" height="13" as="geometry" />
        </mxCell>
        <mxCell id="q7dswaSPt2_tJIKAAf1v-92" value="" style="ellipse;whiteSpace=wrap;html=1;strokeColor=#000000;fillColor=#999999;fontColor=#ffffff;movable=1;resizable=1;rotatable=1;deletable=1;editable=1;locked=0;connectable=1;container=0;strokeWidth=0.1;" vertex="1" parent="q7dswaSPt2_tJIKAAf1v-77">
          <mxGeometry x="66.25" y="5.049999999999997" width="5" height="5" as="geometry" />
        </mxCell>
        <mxCell id="q7dswaSPt2_tJIKAAf1v-93" value="" style="ellipse;whiteSpace=wrap;html=1;strokeColor=none;fillColor=#111111;fontColor=#ffffff;movable=1;resizable=1;rotatable=1;deletable=1;editable=1;locked=0;connectable=1;container=0;strokeWidth=0.1;" vertex="1" parent="q7dswaSPt2_tJIKAAf1v-77">
          <mxGeometry x="67.25" y="5.9999999999999964" width="3" height="3" as="geometry" />
        </mxCell>
        <mxCell id="q7dswaSPt2_tJIKAAf1v-94" value="" style="endArrow=none;html=1;rounded=0;strokeWidth=0.4;strokeColor=#111111;exitX=0;exitY=0.5;exitDx=0;exitDy=0;entryX=1;entryY=0.5;entryDx=0;entryDy=0;" edge="1" parent="q7dswaSPt2_tJIKAAf1v-77" source="q7dswaSPt2_tJIKAAf1v-92" target="q7dswaSPt2_tJIKAAf1v-92">
          <mxGeometry width="50" height="50" relative="1" as="geometry">
            <mxPoint x="59.5" y="7.049999999999997" as="sourcePoint" />
            <mxPoint x="79.5" y="7.049999999999997" as="targetPoint" />
          </mxGeometry>
        </mxCell>
        <mxCell id="q7dswaSPt2_tJIKAAf1v-95" value="&lt;span style=&quot;font-size: 4px;&quot;&gt;&lt;font style=&quot;font-size: 4px;&quot;&gt;NVMe&lt;/font&gt;&lt;/span&gt;" style="text;html=1;align=center;verticalAlign=middle;whiteSpace=wrap;rounded=0;fontSize=4;fontStyle=3" vertex="1" parent="q7dswaSPt2_tJIKAAf1v-77">
          <mxGeometry x="2.5" y="1.9999999999999964" width="15" height="4" as="geometry" />
        </mxCell>
        <mxCell id="q7dswaSPt2_tJIKAAf1v-96" value="" style="group" vertex="1" connectable="0" parent="q7dswaSPt2_tJIKAAf1v-191">
          <mxGeometry x="184.5" y="26.950000000000003" width="80" height="15" as="geometry" />
        </mxCell>
        <mxCell id="q7dswaSPt2_tJIKAAf1v-97" value="" style="rounded=0;whiteSpace=wrap;html=1;strokeColor=none;fillColor=#222222;strokeWidth=1;movable=1;resizable=1;rotatable=1;deletable=1;editable=1;locked=0;connectable=1;container=0;" vertex="1" parent="q7dswaSPt2_tJIKAAf1v-96">
          <mxGeometry width="80" height="15" as="geometry" />
        </mxCell>
        <mxCell id="q7dswaSPt2_tJIKAAf1v-98" value="" style="rounded=1;whiteSpace=wrap;html=1;strokeColor=none;fillColor=#008a00;fontColor=#ffffff;container=0;" vertex="1" parent="q7dswaSPt2_tJIKAAf1v-96">
          <mxGeometry x="77.25" y="9.999999999999996" width="2" height="3" as="geometry" />
        </mxCell>
        <mxCell id="q7dswaSPt2_tJIKAAf1v-99" value="" style="rounded=1;whiteSpace=wrap;html=1;strokeColor=none;fillColor=#0050ef;fontColor=#ffffff;container=0;" vertex="1" parent="q7dswaSPt2_tJIKAAf1v-96">
          <mxGeometry x="77.25" y="2.049999999999997" width="2" height="3" as="geometry" />
        </mxCell>
        <mxCell id="q7dswaSPt2_tJIKAAf1v-100" value="" style="rounded=0;whiteSpace=wrap;html=1;strokeColor=none;fillColor=#111111;strokeWidth=1;movable=1;resizable=1;rotatable=1;deletable=1;editable=1;locked=0;connectable=1;container=0;gradientColor=none;gradientDirection=east;" vertex="1" parent="q7dswaSPt2_tJIKAAf1v-96">
          <mxGeometry x="19.5" y="0.9999999999999964" width="57" height="13" as="geometry" />
        </mxCell>
        <mxCell id="q7dswaSPt2_tJIKAAf1v-101" value="" style="rounded=1;whiteSpace=wrap;html=1;strokeColor=none;fillColor=#111111;arcSize=50;" vertex="1" parent="q7dswaSPt2_tJIKAAf1v-96">
          <mxGeometry x="1.5" y="1.0499999999999972" width="17" height="6" as="geometry" />
        </mxCell>
        <mxCell id="q7dswaSPt2_tJIKAAf1v-102" value="" style="rounded=1;whiteSpace=wrap;html=1;strokeColor=none;fillColor=#111111;arcSize=50;" vertex="1" parent="q7dswaSPt2_tJIKAAf1v-96">
          <mxGeometry x="1.5" y="7.9999999999999964" width="17" height="6" as="geometry" />
        </mxCell>
        <mxCell id="q7dswaSPt2_tJIKAAf1v-103" value="" style="rounded=1;whiteSpace=wrap;html=1;strokeColor=none;fillColor=#010101;arcSize=50;" vertex="1" parent="q7dswaSPt2_tJIKAAf1v-96">
          <mxGeometry x="20.5" y="1.0499999999999972" width="13" height="6" as="geometry" />
        </mxCell>
        <mxCell id="q7dswaSPt2_tJIKAAf1v-104" value="" style="rounded=1;whiteSpace=wrap;html=1;strokeColor=none;fillColor=#010101;arcSize=50;" vertex="1" parent="q7dswaSPt2_tJIKAAf1v-96">
          <mxGeometry x="20.5" y="7.9999999999999964" width="13" height="6" as="geometry" />
        </mxCell>
        <mxCell id="q7dswaSPt2_tJIKAAf1v-105" value="" style="rounded=1;whiteSpace=wrap;html=1;strokeColor=none;fillColor=#010101;arcSize=50;" vertex="1" parent="q7dswaSPt2_tJIKAAf1v-96">
          <mxGeometry x="34.5" y="1.0499999999999972" width="13" height="6" as="geometry" />
        </mxCell>
        <mxCell id="q7dswaSPt2_tJIKAAf1v-106" value="" style="rounded=1;whiteSpace=wrap;html=1;strokeColor=none;fillColor=#010101;arcSize=50;" vertex="1" parent="q7dswaSPt2_tJIKAAf1v-96">
          <mxGeometry x="34.5" y="7.9999999999999964" width="13" height="6" as="geometry" />
        </mxCell>
        <mxCell id="q7dswaSPt2_tJIKAAf1v-107" value="" style="rounded=1;whiteSpace=wrap;html=1;strokeColor=none;fillColor=#010101;arcSize=50;" vertex="1" parent="q7dswaSPt2_tJIKAAf1v-96">
          <mxGeometry x="48.5" y="1.0499999999999972" width="13" height="6" as="geometry" />
        </mxCell>
        <mxCell id="q7dswaSPt2_tJIKAAf1v-108" value="" style="rounded=1;whiteSpace=wrap;html=1;strokeColor=none;fillColor=#010101;arcSize=50;" vertex="1" parent="q7dswaSPt2_tJIKAAf1v-96">
          <mxGeometry x="48.5" y="8" width="13" height="6" as="geometry" />
        </mxCell>
        <mxCell id="q7dswaSPt2_tJIKAAf1v-109" value="" style="rounded=0;whiteSpace=wrap;html=1;strokeColor=none;fillColor=#FF9933;strokeWidth=1;movable=1;resizable=1;rotatable=1;deletable=1;editable=1;locked=0;connectable=1;container=0;gradientDirection=west;fontColor=#000000;gradientColor=#DE852C;" vertex="1" parent="q7dswaSPt2_tJIKAAf1v-96">
          <mxGeometry x="62.5" y="0.9999999999999964" width="12.5" height="13" as="geometry" />
        </mxCell>
        <mxCell id="q7dswaSPt2_tJIKAAf1v-110" value="" style="rounded=0;whiteSpace=wrap;html=1;strokeColor=none;fillColor=#DE852C;strokeWidth=1;movable=1;resizable=1;rotatable=1;deletable=1;editable=1;locked=0;connectable=1;container=0;gradientDirection=east;fontColor=#000000;shadow=1;glass=0;" vertex="1" parent="q7dswaSPt2_tJIKAAf1v-96">
          <mxGeometry x="73" y="1.0499999999999972" width="2" height="13" as="geometry" />
        </mxCell>
        <mxCell id="q7dswaSPt2_tJIKAAf1v-111" value="" style="ellipse;whiteSpace=wrap;html=1;strokeColor=#000000;fillColor=#999999;fontColor=#ffffff;movable=1;resizable=1;rotatable=1;deletable=1;editable=1;locked=0;connectable=1;container=0;strokeWidth=0.1;" vertex="1" parent="q7dswaSPt2_tJIKAAf1v-96">
          <mxGeometry x="66.25" y="5.049999999999997" width="5" height="5" as="geometry" />
        </mxCell>
        <mxCell id="q7dswaSPt2_tJIKAAf1v-112" value="" style="ellipse;whiteSpace=wrap;html=1;strokeColor=none;fillColor=#111111;fontColor=#ffffff;movable=1;resizable=1;rotatable=1;deletable=1;editable=1;locked=0;connectable=1;container=0;strokeWidth=0.1;" vertex="1" parent="q7dswaSPt2_tJIKAAf1v-96">
          <mxGeometry x="67.25" y="5.9999999999999964" width="3" height="3" as="geometry" />
        </mxCell>
        <mxCell id="q7dswaSPt2_tJIKAAf1v-113" value="" style="endArrow=none;html=1;rounded=0;strokeWidth=0.4;strokeColor=#111111;exitX=0;exitY=0.5;exitDx=0;exitDy=0;entryX=1;entryY=0.5;entryDx=0;entryDy=0;" edge="1" parent="q7dswaSPt2_tJIKAAf1v-96" source="q7dswaSPt2_tJIKAAf1v-111" target="q7dswaSPt2_tJIKAAf1v-111">
          <mxGeometry width="50" height="50" relative="1" as="geometry">
            <mxPoint x="59.5" y="7.049999999999997" as="sourcePoint" />
            <mxPoint x="79.5" y="7.049999999999997" as="targetPoint" />
          </mxGeometry>
        </mxCell>
        <mxCell id="q7dswaSPt2_tJIKAAf1v-114" value="&lt;span style=&quot;font-size: 4px;&quot;&gt;&lt;font style=&quot;font-size: 4px;&quot;&gt;NVMe&lt;/font&gt;&lt;/span&gt;" style="text;html=1;align=center;verticalAlign=middle;whiteSpace=wrap;rounded=0;fontSize=4;fontStyle=3" vertex="1" parent="q7dswaSPt2_tJIKAAf1v-96">
          <mxGeometry x="2.5" y="1.9999999999999964" width="15" height="4" as="geometry" />
        </mxCell>
        <mxCell id="q7dswaSPt2_tJIKAAf1v-115" value="" style="group" vertex="1" connectable="0" parent="q7dswaSPt2_tJIKAAf1v-191">
          <mxGeometry x="266.5" y="9.950000000000003" width="80" height="15" as="geometry" />
        </mxCell>
        <mxCell id="q7dswaSPt2_tJIKAAf1v-116" value="" style="rounded=0;whiteSpace=wrap;html=1;strokeColor=none;fillColor=#222222;strokeWidth=1;movable=1;resizable=1;rotatable=1;deletable=1;editable=1;locked=0;connectable=1;container=0;" vertex="1" parent="q7dswaSPt2_tJIKAAf1v-115">
          <mxGeometry width="80" height="15" as="geometry" />
        </mxCell>
        <mxCell id="q7dswaSPt2_tJIKAAf1v-117" value="" style="rounded=1;whiteSpace=wrap;html=1;strokeColor=none;fillColor=#008a00;fontColor=#ffffff;container=0;" vertex="1" parent="q7dswaSPt2_tJIKAAf1v-115">
          <mxGeometry x="77.25" y="9.999999999999996" width="2" height="3" as="geometry" />
        </mxCell>
        <mxCell id="q7dswaSPt2_tJIKAAf1v-118" value="" style="rounded=1;whiteSpace=wrap;html=1;strokeColor=none;fillColor=#0050ef;fontColor=#ffffff;container=0;" vertex="1" parent="q7dswaSPt2_tJIKAAf1v-115">
          <mxGeometry x="77.25" y="2.049999999999997" width="2" height="3" as="geometry" />
        </mxCell>
        <mxCell id="q7dswaSPt2_tJIKAAf1v-119" value="" style="rounded=0;whiteSpace=wrap;html=1;strokeColor=none;fillColor=#111111;strokeWidth=1;movable=1;resizable=1;rotatable=1;deletable=1;editable=1;locked=0;connectable=1;container=0;gradientColor=none;gradientDirection=east;" vertex="1" parent="q7dswaSPt2_tJIKAAf1v-115">
          <mxGeometry x="19.5" y="0.9999999999999964" width="57" height="13" as="geometry" />
        </mxCell>
        <mxCell id="q7dswaSPt2_tJIKAAf1v-120" value="" style="rounded=1;whiteSpace=wrap;html=1;strokeColor=none;fillColor=#111111;arcSize=50;" vertex="1" parent="q7dswaSPt2_tJIKAAf1v-115">
          <mxGeometry x="1.5" y="1.0499999999999972" width="17" height="6" as="geometry" />
        </mxCell>
        <mxCell id="q7dswaSPt2_tJIKAAf1v-121" value="" style="rounded=1;whiteSpace=wrap;html=1;strokeColor=none;fillColor=#111111;arcSize=50;" vertex="1" parent="q7dswaSPt2_tJIKAAf1v-115">
          <mxGeometry x="1.5" y="7.9999999999999964" width="17" height="6" as="geometry" />
        </mxCell>
        <mxCell id="q7dswaSPt2_tJIKAAf1v-122" value="" style="rounded=1;whiteSpace=wrap;html=1;strokeColor=none;fillColor=#010101;arcSize=50;" vertex="1" parent="q7dswaSPt2_tJIKAAf1v-115">
          <mxGeometry x="20.5" y="1.0499999999999972" width="13" height="6" as="geometry" />
        </mxCell>
        <mxCell id="q7dswaSPt2_tJIKAAf1v-123" value="" style="rounded=1;whiteSpace=wrap;html=1;strokeColor=none;fillColor=#010101;arcSize=50;" vertex="1" parent="q7dswaSPt2_tJIKAAf1v-115">
          <mxGeometry x="20.5" y="7.9999999999999964" width="13" height="6" as="geometry" />
        </mxCell>
        <mxCell id="q7dswaSPt2_tJIKAAf1v-124" value="" style="rounded=1;whiteSpace=wrap;html=1;strokeColor=none;fillColor=#010101;arcSize=50;" vertex="1" parent="q7dswaSPt2_tJIKAAf1v-115">
          <mxGeometry x="34.5" y="1.0499999999999972" width="13" height="6" as="geometry" />
        </mxCell>
        <mxCell id="q7dswaSPt2_tJIKAAf1v-125" value="" style="rounded=1;whiteSpace=wrap;html=1;strokeColor=none;fillColor=#010101;arcSize=50;" vertex="1" parent="q7dswaSPt2_tJIKAAf1v-115">
          <mxGeometry x="34.5" y="7.9999999999999964" width="13" height="6" as="geometry" />
        </mxCell>
        <mxCell id="q7dswaSPt2_tJIKAAf1v-126" value="" style="rounded=1;whiteSpace=wrap;html=1;strokeColor=none;fillColor=#010101;arcSize=50;" vertex="1" parent="q7dswaSPt2_tJIKAAf1v-115">
          <mxGeometry x="48.5" y="1.0499999999999972" width="13" height="6" as="geometry" />
        </mxCell>
        <mxCell id="q7dswaSPt2_tJIKAAf1v-127" value="" style="rounded=1;whiteSpace=wrap;html=1;strokeColor=none;fillColor=#010101;arcSize=50;" vertex="1" parent="q7dswaSPt2_tJIKAAf1v-115">
          <mxGeometry x="48.5" y="8" width="13" height="6" as="geometry" />
        </mxCell>
        <mxCell id="q7dswaSPt2_tJIKAAf1v-128" value="" style="rounded=0;whiteSpace=wrap;html=1;strokeColor=none;fillColor=#FF9933;strokeWidth=1;movable=1;resizable=1;rotatable=1;deletable=1;editable=1;locked=0;connectable=1;container=0;gradientDirection=west;fontColor=#000000;gradientColor=#DE852C;" vertex="1" parent="q7dswaSPt2_tJIKAAf1v-115">
          <mxGeometry x="62.5" y="0.9999999999999964" width="12.5" height="13" as="geometry" />
        </mxCell>
        <mxCell id="q7dswaSPt2_tJIKAAf1v-129" value="" style="rounded=0;whiteSpace=wrap;html=1;strokeColor=none;fillColor=#DE852C;strokeWidth=1;movable=1;resizable=1;rotatable=1;deletable=1;editable=1;locked=0;connectable=1;container=0;gradientDirection=east;fontColor=#000000;shadow=1;glass=0;" vertex="1" parent="q7dswaSPt2_tJIKAAf1v-115">
          <mxGeometry x="73" y="1.0499999999999972" width="2" height="13" as="geometry" />
        </mxCell>
        <mxCell id="q7dswaSPt2_tJIKAAf1v-130" value="" style="ellipse;whiteSpace=wrap;html=1;strokeColor=#000000;fillColor=#999999;fontColor=#ffffff;movable=1;resizable=1;rotatable=1;deletable=1;editable=1;locked=0;connectable=1;container=0;strokeWidth=0.1;" vertex="1" parent="q7dswaSPt2_tJIKAAf1v-115">
          <mxGeometry x="66.25" y="5.049999999999997" width="5" height="5" as="geometry" />
        </mxCell>
        <mxCell id="q7dswaSPt2_tJIKAAf1v-131" value="" style="ellipse;whiteSpace=wrap;html=1;strokeColor=none;fillColor=#111111;fontColor=#ffffff;movable=1;resizable=1;rotatable=1;deletable=1;editable=1;locked=0;connectable=1;container=0;strokeWidth=0.1;" vertex="1" parent="q7dswaSPt2_tJIKAAf1v-115">
          <mxGeometry x="67.25" y="5.9999999999999964" width="3" height="3" as="geometry" />
        </mxCell>
        <mxCell id="q7dswaSPt2_tJIKAAf1v-132" value="" style="endArrow=none;html=1;rounded=0;strokeWidth=0.4;strokeColor=#111111;exitX=0;exitY=0.5;exitDx=0;exitDy=0;entryX=1;entryY=0.5;entryDx=0;entryDy=0;" edge="1" parent="q7dswaSPt2_tJIKAAf1v-115" source="q7dswaSPt2_tJIKAAf1v-130" target="q7dswaSPt2_tJIKAAf1v-130">
          <mxGeometry width="50" height="50" relative="1" as="geometry">
            <mxPoint x="59.5" y="7.049999999999997" as="sourcePoint" />
            <mxPoint x="79.5" y="7.049999999999997" as="targetPoint" />
          </mxGeometry>
        </mxCell>
        <mxCell id="q7dswaSPt2_tJIKAAf1v-133" value="&lt;span style=&quot;font-size: 4px;&quot;&gt;&lt;font style=&quot;font-size: 4px;&quot;&gt;NVMe&lt;/font&gt;&lt;/span&gt;" style="text;html=1;align=center;verticalAlign=middle;whiteSpace=wrap;rounded=0;fontSize=4;fontStyle=3" vertex="1" parent="q7dswaSPt2_tJIKAAf1v-115">
          <mxGeometry x="2.5" y="1.9999999999999964" width="15" height="4" as="geometry" />
        </mxCell>
        <mxCell id="q7dswaSPt2_tJIKAAf1v-134" value="" style="group" vertex="1" connectable="0" parent="q7dswaSPt2_tJIKAAf1v-191">
          <mxGeometry x="266.5" y="26.950000000000003" width="80" height="15" as="geometry" />
        </mxCell>
        <mxCell id="q7dswaSPt2_tJIKAAf1v-135" value="" style="rounded=0;whiteSpace=wrap;html=1;strokeColor=none;fillColor=#222222;strokeWidth=1;movable=1;resizable=1;rotatable=1;deletable=1;editable=1;locked=0;connectable=1;container=0;" vertex="1" parent="q7dswaSPt2_tJIKAAf1v-134">
          <mxGeometry width="80" height="15" as="geometry" />
        </mxCell>
        <mxCell id="q7dswaSPt2_tJIKAAf1v-136" value="" style="rounded=1;whiteSpace=wrap;html=1;strokeColor=none;fillColor=#008a00;fontColor=#ffffff;container=0;" vertex="1" parent="q7dswaSPt2_tJIKAAf1v-134">
          <mxGeometry x="77.25" y="9.999999999999996" width="2" height="3" as="geometry" />
        </mxCell>
        <mxCell id="q7dswaSPt2_tJIKAAf1v-137" value="" style="rounded=1;whiteSpace=wrap;html=1;strokeColor=none;fillColor=#0050ef;fontColor=#ffffff;container=0;" vertex="1" parent="q7dswaSPt2_tJIKAAf1v-134">
          <mxGeometry x="77.25" y="2.049999999999997" width="2" height="3" as="geometry" />
        </mxCell>
        <mxCell id="q7dswaSPt2_tJIKAAf1v-138" value="" style="rounded=0;whiteSpace=wrap;html=1;strokeColor=none;fillColor=#111111;strokeWidth=1;movable=1;resizable=1;rotatable=1;deletable=1;editable=1;locked=0;connectable=1;container=0;gradientColor=none;gradientDirection=east;" vertex="1" parent="q7dswaSPt2_tJIKAAf1v-134">
          <mxGeometry x="19.5" y="0.9999999999999964" width="57" height="13" as="geometry" />
        </mxCell>
        <mxCell id="q7dswaSPt2_tJIKAAf1v-139" value="" style="rounded=1;whiteSpace=wrap;html=1;strokeColor=none;fillColor=#111111;arcSize=50;" vertex="1" parent="q7dswaSPt2_tJIKAAf1v-134">
          <mxGeometry x="1.5" y="1.0499999999999972" width="17" height="6" as="geometry" />
        </mxCell>
        <mxCell id="q7dswaSPt2_tJIKAAf1v-140" value="" style="rounded=1;whiteSpace=wrap;html=1;strokeColor=none;fillColor=#111111;arcSize=50;" vertex="1" parent="q7dswaSPt2_tJIKAAf1v-134">
          <mxGeometry x="1.5" y="7.9999999999999964" width="17" height="6" as="geometry" />
        </mxCell>
        <mxCell id="q7dswaSPt2_tJIKAAf1v-141" value="" style="rounded=1;whiteSpace=wrap;html=1;strokeColor=none;fillColor=#010101;arcSize=50;" vertex="1" parent="q7dswaSPt2_tJIKAAf1v-134">
          <mxGeometry x="20.5" y="1.0499999999999972" width="13" height="6" as="geometry" />
        </mxCell>
        <mxCell id="q7dswaSPt2_tJIKAAf1v-142" value="" style="rounded=1;whiteSpace=wrap;html=1;strokeColor=none;fillColor=#010101;arcSize=50;" vertex="1" parent="q7dswaSPt2_tJIKAAf1v-134">
          <mxGeometry x="20.5" y="7.9999999999999964" width="13" height="6" as="geometry" />
        </mxCell>
        <mxCell id="q7dswaSPt2_tJIKAAf1v-143" value="" style="rounded=1;whiteSpace=wrap;html=1;strokeColor=none;fillColor=#010101;arcSize=50;" vertex="1" parent="q7dswaSPt2_tJIKAAf1v-134">
          <mxGeometry x="34.5" y="1.0499999999999972" width="13" height="6" as="geometry" />
        </mxCell>
        <mxCell id="q7dswaSPt2_tJIKAAf1v-144" value="" style="rounded=1;whiteSpace=wrap;html=1;strokeColor=none;fillColor=#010101;arcSize=50;" vertex="1" parent="q7dswaSPt2_tJIKAAf1v-134">
          <mxGeometry x="34.5" y="7.9999999999999964" width="13" height="6" as="geometry" />
        </mxCell>
        <mxCell id="q7dswaSPt2_tJIKAAf1v-145" value="" style="rounded=1;whiteSpace=wrap;html=1;strokeColor=none;fillColor=#010101;arcSize=50;" vertex="1" parent="q7dswaSPt2_tJIKAAf1v-134">
          <mxGeometry x="48.5" y="1.0499999999999972" width="13" height="6" as="geometry" />
        </mxCell>
        <mxCell id="q7dswaSPt2_tJIKAAf1v-146" value="" style="rounded=1;whiteSpace=wrap;html=1;strokeColor=none;fillColor=#010101;arcSize=50;" vertex="1" parent="q7dswaSPt2_tJIKAAf1v-134">
          <mxGeometry x="48.5" y="8" width="13" height="6" as="geometry" />
        </mxCell>
        <mxCell id="q7dswaSPt2_tJIKAAf1v-147" value="" style="rounded=0;whiteSpace=wrap;html=1;strokeColor=none;fillColor=#FF9933;strokeWidth=1;movable=1;resizable=1;rotatable=1;deletable=1;editable=1;locked=0;connectable=1;container=0;gradientDirection=west;fontColor=#000000;gradientColor=#DE852C;" vertex="1" parent="q7dswaSPt2_tJIKAAf1v-134">
          <mxGeometry x="62.5" y="0.9999999999999964" width="12.5" height="13" as="geometry" />
        </mxCell>
        <mxCell id="q7dswaSPt2_tJIKAAf1v-148" value="" style="rounded=0;whiteSpace=wrap;html=1;strokeColor=none;fillColor=#DE852C;strokeWidth=1;movable=1;resizable=1;rotatable=1;deletable=1;editable=1;locked=0;connectable=1;container=0;gradientDirection=east;fontColor=#000000;shadow=1;glass=0;" vertex="1" parent="q7dswaSPt2_tJIKAAf1v-134">
          <mxGeometry x="73" y="1.0499999999999972" width="2" height="13" as="geometry" />
        </mxCell>
        <mxCell id="q7dswaSPt2_tJIKAAf1v-149" value="" style="ellipse;whiteSpace=wrap;html=1;strokeColor=#000000;fillColor=#999999;fontColor=#ffffff;movable=1;resizable=1;rotatable=1;deletable=1;editable=1;locked=0;connectable=1;container=0;strokeWidth=0.1;" vertex="1" parent="q7dswaSPt2_tJIKAAf1v-134">
          <mxGeometry x="66.25" y="5.049999999999997" width="5" height="5" as="geometry" />
        </mxCell>
        <mxCell id="q7dswaSPt2_tJIKAAf1v-150" value="" style="ellipse;whiteSpace=wrap;html=1;strokeColor=none;fillColor=#111111;fontColor=#ffffff;movable=1;resizable=1;rotatable=1;deletable=1;editable=1;locked=0;connectable=1;container=0;strokeWidth=0.1;" vertex="1" parent="q7dswaSPt2_tJIKAAf1v-134">
          <mxGeometry x="67.25" y="5.9999999999999964" width="3" height="3" as="geometry" />
        </mxCell>
        <mxCell id="q7dswaSPt2_tJIKAAf1v-151" value="" style="endArrow=none;html=1;rounded=0;strokeWidth=0.4;strokeColor=#111111;exitX=0;exitY=0.5;exitDx=0;exitDy=0;entryX=1;entryY=0.5;entryDx=0;entryDy=0;" edge="1" parent="q7dswaSPt2_tJIKAAf1v-134" source="q7dswaSPt2_tJIKAAf1v-149" target="q7dswaSPt2_tJIKAAf1v-149">
          <mxGeometry width="50" height="50" relative="1" as="geometry">
            <mxPoint x="59.5" y="7.049999999999997" as="sourcePoint" />
            <mxPoint x="79.5" y="7.049999999999997" as="targetPoint" />
          </mxGeometry>
        </mxCell>
        <mxCell id="q7dswaSPt2_tJIKAAf1v-152" value="&lt;span style=&quot;font-size: 4px;&quot;&gt;&lt;font style=&quot;font-size: 4px;&quot;&gt;NVMe&lt;/font&gt;&lt;/span&gt;" style="text;html=1;align=center;verticalAlign=middle;whiteSpace=wrap;rounded=0;fontSize=4;fontStyle=3" vertex="1" parent="q7dswaSPt2_tJIKAAf1v-134">
          <mxGeometry x="2.5" y="1.9999999999999964" width="15" height="4" as="geometry" />
        </mxCell>
        <mxCell id="q7dswaSPt2_tJIKAAf1v-153" value="" style="group" vertex="1" connectable="0" parent="q7dswaSPt2_tJIKAAf1v-191">
          <mxGeometry x="348.5" y="9.950000000000003" width="80" height="15" as="geometry" />
        </mxCell>
        <mxCell id="q7dswaSPt2_tJIKAAf1v-154" value="" style="rounded=0;whiteSpace=wrap;html=1;strokeColor=none;fillColor=#222222;strokeWidth=1;movable=1;resizable=1;rotatable=1;deletable=1;editable=1;locked=0;connectable=1;container=0;" vertex="1" parent="q7dswaSPt2_tJIKAAf1v-153">
          <mxGeometry width="80" height="15" as="geometry" />
        </mxCell>
        <mxCell id="q7dswaSPt2_tJIKAAf1v-155" value="" style="rounded=1;whiteSpace=wrap;html=1;strokeColor=none;fillColor=#008a00;fontColor=#ffffff;container=0;" vertex="1" parent="q7dswaSPt2_tJIKAAf1v-153">
          <mxGeometry x="77.25" y="9.999999999999996" width="2" height="3" as="geometry" />
        </mxCell>
        <mxCell id="q7dswaSPt2_tJIKAAf1v-156" value="" style="rounded=1;whiteSpace=wrap;html=1;strokeColor=none;fillColor=#0050ef;fontColor=#ffffff;container=0;" vertex="1" parent="q7dswaSPt2_tJIKAAf1v-153">
          <mxGeometry x="77.25" y="2.049999999999997" width="2" height="3" as="geometry" />
        </mxCell>
        <mxCell id="q7dswaSPt2_tJIKAAf1v-157" value="" style="rounded=0;whiteSpace=wrap;html=1;strokeColor=none;fillColor=#111111;strokeWidth=1;movable=1;resizable=1;rotatable=1;deletable=1;editable=1;locked=0;connectable=1;container=0;gradientColor=none;gradientDirection=east;" vertex="1" parent="q7dswaSPt2_tJIKAAf1v-153">
          <mxGeometry x="19.5" y="0.9999999999999964" width="57" height="13" as="geometry" />
        </mxCell>
        <mxCell id="q7dswaSPt2_tJIKAAf1v-158" value="" style="rounded=1;whiteSpace=wrap;html=1;strokeColor=none;fillColor=#111111;arcSize=50;" vertex="1" parent="q7dswaSPt2_tJIKAAf1v-153">
          <mxGeometry x="1.5" y="1.0499999999999972" width="17" height="6" as="geometry" />
        </mxCell>
        <mxCell id="q7dswaSPt2_tJIKAAf1v-159" value="" style="rounded=1;whiteSpace=wrap;html=1;strokeColor=none;fillColor=#111111;arcSize=50;" vertex="1" parent="q7dswaSPt2_tJIKAAf1v-153">
          <mxGeometry x="1.5" y="7.9999999999999964" width="17" height="6" as="geometry" />
        </mxCell>
        <mxCell id="q7dswaSPt2_tJIKAAf1v-160" value="" style="rounded=1;whiteSpace=wrap;html=1;strokeColor=none;fillColor=#010101;arcSize=50;" vertex="1" parent="q7dswaSPt2_tJIKAAf1v-153">
          <mxGeometry x="20.5" y="1.0499999999999972" width="13" height="6" as="geometry" />
        </mxCell>
        <mxCell id="q7dswaSPt2_tJIKAAf1v-161" value="" style="rounded=1;whiteSpace=wrap;html=1;strokeColor=none;fillColor=#010101;arcSize=50;" vertex="1" parent="q7dswaSPt2_tJIKAAf1v-153">
          <mxGeometry x="20.5" y="7.9999999999999964" width="13" height="6" as="geometry" />
        </mxCell>
        <mxCell id="q7dswaSPt2_tJIKAAf1v-162" value="" style="rounded=1;whiteSpace=wrap;html=1;strokeColor=none;fillColor=#010101;arcSize=50;" vertex="1" parent="q7dswaSPt2_tJIKAAf1v-153">
          <mxGeometry x="34.5" y="1.0499999999999972" width="13" height="6" as="geometry" />
        </mxCell>
        <mxCell id="q7dswaSPt2_tJIKAAf1v-163" value="" style="rounded=1;whiteSpace=wrap;html=1;strokeColor=none;fillColor=#010101;arcSize=50;" vertex="1" parent="q7dswaSPt2_tJIKAAf1v-153">
          <mxGeometry x="34.5" y="7.9999999999999964" width="13" height="6" as="geometry" />
        </mxCell>
        <mxCell id="q7dswaSPt2_tJIKAAf1v-164" value="" style="rounded=1;whiteSpace=wrap;html=1;strokeColor=none;fillColor=#010101;arcSize=50;" vertex="1" parent="q7dswaSPt2_tJIKAAf1v-153">
          <mxGeometry x="48.5" y="1.0499999999999972" width="13" height="6" as="geometry" />
        </mxCell>
        <mxCell id="q7dswaSPt2_tJIKAAf1v-165" value="" style="rounded=1;whiteSpace=wrap;html=1;strokeColor=none;fillColor=#010101;arcSize=50;" vertex="1" parent="q7dswaSPt2_tJIKAAf1v-153">
          <mxGeometry x="48.5" y="8" width="13" height="6" as="geometry" />
        </mxCell>
        <mxCell id="q7dswaSPt2_tJIKAAf1v-166" value="" style="rounded=0;whiteSpace=wrap;html=1;strokeColor=none;fillColor=#FF9933;strokeWidth=1;movable=1;resizable=1;rotatable=1;deletable=1;editable=1;locked=0;connectable=1;container=0;gradientDirection=west;fontColor=#000000;gradientColor=#DE852C;" vertex="1" parent="q7dswaSPt2_tJIKAAf1v-153">
          <mxGeometry x="62.5" y="0.9999999999999964" width="12.5" height="13" as="geometry" />
        </mxCell>
        <mxCell id="q7dswaSPt2_tJIKAAf1v-167" value="" style="rounded=0;whiteSpace=wrap;html=1;strokeColor=none;fillColor=#DE852C;strokeWidth=1;movable=1;resizable=1;rotatable=1;deletable=1;editable=1;locked=0;connectable=1;container=0;gradientDirection=east;fontColor=#000000;shadow=1;glass=0;" vertex="1" parent="q7dswaSPt2_tJIKAAf1v-153">
          <mxGeometry x="73" y="1.0499999999999972" width="2" height="13" as="geometry" />
        </mxCell>
        <mxCell id="q7dswaSPt2_tJIKAAf1v-168" value="" style="ellipse;whiteSpace=wrap;html=1;strokeColor=#000000;fillColor=#999999;fontColor=#ffffff;movable=1;resizable=1;rotatable=1;deletable=1;editable=1;locked=0;connectable=1;container=0;strokeWidth=0.1;" vertex="1" parent="q7dswaSPt2_tJIKAAf1v-153">
          <mxGeometry x="66.25" y="5.049999999999997" width="5" height="5" as="geometry" />
        </mxCell>
        <mxCell id="q7dswaSPt2_tJIKAAf1v-169" value="" style="ellipse;whiteSpace=wrap;html=1;strokeColor=none;fillColor=#111111;fontColor=#ffffff;movable=1;resizable=1;rotatable=1;deletable=1;editable=1;locked=0;connectable=1;container=0;strokeWidth=0.1;" vertex="1" parent="q7dswaSPt2_tJIKAAf1v-153">
          <mxGeometry x="67.25" y="5.9999999999999964" width="3" height="3" as="geometry" />
        </mxCell>
        <mxCell id="q7dswaSPt2_tJIKAAf1v-170" value="" style="endArrow=none;html=1;rounded=0;strokeWidth=0.4;strokeColor=#111111;exitX=0;exitY=0.5;exitDx=0;exitDy=0;entryX=1;entryY=0.5;entryDx=0;entryDy=0;" edge="1" parent="q7dswaSPt2_tJIKAAf1v-153" source="q7dswaSPt2_tJIKAAf1v-168" target="q7dswaSPt2_tJIKAAf1v-168">
          <mxGeometry width="50" height="50" relative="1" as="geometry">
            <mxPoint x="59.5" y="7.049999999999997" as="sourcePoint" />
            <mxPoint x="79.5" y="7.049999999999997" as="targetPoint" />
          </mxGeometry>
        </mxCell>
        <mxCell id="q7dswaSPt2_tJIKAAf1v-171" value="&lt;span style=&quot;font-size: 4px;&quot;&gt;&lt;font style=&quot;font-size: 4px;&quot;&gt;NVMe&lt;/font&gt;&lt;/span&gt;" style="text;html=1;align=center;verticalAlign=middle;whiteSpace=wrap;rounded=0;fontSize=4;fontStyle=3" vertex="1" parent="q7dswaSPt2_tJIKAAf1v-153">
          <mxGeometry x="2.5" y="1.9999999999999964" width="15" height="4" as="geometry" />
        </mxCell>
        <mxCell id="q7dswaSPt2_tJIKAAf1v-172" value="" style="group" vertex="1" connectable="0" parent="q7dswaSPt2_tJIKAAf1v-191">
          <mxGeometry x="348.5" y="26.950000000000003" width="80" height="15" as="geometry" />
        </mxCell>
        <mxCell id="q7dswaSPt2_tJIKAAf1v-173" value="" style="rounded=0;whiteSpace=wrap;html=1;strokeColor=none;fillColor=#222222;strokeWidth=1;movable=1;resizable=1;rotatable=1;deletable=1;editable=1;locked=0;connectable=1;container=0;" vertex="1" parent="q7dswaSPt2_tJIKAAf1v-172">
          <mxGeometry width="80" height="15" as="geometry" />
        </mxCell>
        <mxCell id="q7dswaSPt2_tJIKAAf1v-174" value="" style="rounded=1;whiteSpace=wrap;html=1;strokeColor=none;fillColor=#008a00;fontColor=#ffffff;container=0;" vertex="1" parent="q7dswaSPt2_tJIKAAf1v-172">
          <mxGeometry x="77.25" y="9.999999999999996" width="2" height="3" as="geometry" />
        </mxCell>
        <mxCell id="q7dswaSPt2_tJIKAAf1v-175" value="" style="rounded=1;whiteSpace=wrap;html=1;strokeColor=none;fillColor=#0050ef;fontColor=#ffffff;container=0;" vertex="1" parent="q7dswaSPt2_tJIKAAf1v-172">
          <mxGeometry x="77.25" y="2.049999999999997" width="2" height="3" as="geometry" />
        </mxCell>
        <mxCell id="q7dswaSPt2_tJIKAAf1v-176" value="" style="rounded=0;whiteSpace=wrap;html=1;strokeColor=none;fillColor=#111111;strokeWidth=1;movable=1;resizable=1;rotatable=1;deletable=1;editable=1;locked=0;connectable=1;container=0;gradientColor=none;gradientDirection=east;" vertex="1" parent="q7dswaSPt2_tJIKAAf1v-172">
          <mxGeometry x="19.5" y="0.9999999999999964" width="57" height="13" as="geometry" />
        </mxCell>
        <mxCell id="q7dswaSPt2_tJIKAAf1v-177" value="" style="rounded=1;whiteSpace=wrap;html=1;strokeColor=none;fillColor=#111111;arcSize=50;" vertex="1" parent="q7dswaSPt2_tJIKAAf1v-172">
          <mxGeometry x="1.5" y="1.0499999999999972" width="17" height="6" as="geometry" />
        </mxCell>
        <mxCell id="q7dswaSPt2_tJIKAAf1v-178" value="" style="rounded=1;whiteSpace=wrap;html=1;strokeColor=none;fillColor=#111111;arcSize=50;" vertex="1" parent="q7dswaSPt2_tJIKAAf1v-172">
          <mxGeometry x="1.5" y="7.9999999999999964" width="17" height="6" as="geometry" />
        </mxCell>
        <mxCell id="q7dswaSPt2_tJIKAAf1v-179" value="" style="rounded=1;whiteSpace=wrap;html=1;strokeColor=none;fillColor=#010101;arcSize=50;" vertex="1" parent="q7dswaSPt2_tJIKAAf1v-172">
          <mxGeometry x="20.5" y="1.0499999999999972" width="13" height="6" as="geometry" />
        </mxCell>
        <mxCell id="q7dswaSPt2_tJIKAAf1v-180" value="" style="rounded=1;whiteSpace=wrap;html=1;strokeColor=none;fillColor=#010101;arcSize=50;" vertex="1" parent="q7dswaSPt2_tJIKAAf1v-172">
          <mxGeometry x="20.5" y="7.9999999999999964" width="13" height="6" as="geometry" />
        </mxCell>
        <mxCell id="q7dswaSPt2_tJIKAAf1v-181" value="" style="rounded=1;whiteSpace=wrap;html=1;strokeColor=none;fillColor=#010101;arcSize=50;" vertex="1" parent="q7dswaSPt2_tJIKAAf1v-172">
          <mxGeometry x="34.5" y="1.0499999999999972" width="13" height="6" as="geometry" />
        </mxCell>
        <mxCell id="q7dswaSPt2_tJIKAAf1v-182" value="" style="rounded=1;whiteSpace=wrap;html=1;strokeColor=none;fillColor=#010101;arcSize=50;" vertex="1" parent="q7dswaSPt2_tJIKAAf1v-172">
          <mxGeometry x="34.5" y="7.9999999999999964" width="13" height="6" as="geometry" />
        </mxCell>
        <mxCell id="q7dswaSPt2_tJIKAAf1v-183" value="" style="rounded=1;whiteSpace=wrap;html=1;strokeColor=none;fillColor=#010101;arcSize=50;" vertex="1" parent="q7dswaSPt2_tJIKAAf1v-172">
          <mxGeometry x="48.5" y="1.0499999999999972" width="13" height="6" as="geometry" />
        </mxCell>
        <mxCell id="q7dswaSPt2_tJIKAAf1v-184" value="" style="rounded=1;whiteSpace=wrap;html=1;strokeColor=none;fillColor=#010101;arcSize=50;" vertex="1" parent="q7dswaSPt2_tJIKAAf1v-172">
          <mxGeometry x="48.5" y="8" width="13" height="6" as="geometry" />
        </mxCell>
        <mxCell id="q7dswaSPt2_tJIKAAf1v-185" value="" style="rounded=0;whiteSpace=wrap;html=1;strokeColor=none;fillColor=#FF9933;strokeWidth=1;movable=1;resizable=1;rotatable=1;deletable=1;editable=1;locked=0;connectable=1;container=0;gradientDirection=west;fontColor=#000000;gradientColor=#DE852C;" vertex="1" parent="q7dswaSPt2_tJIKAAf1v-172">
          <mxGeometry x="62.5" y="0.9999999999999964" width="12.5" height="13" as="geometry" />
        </mxCell>
        <mxCell id="q7dswaSPt2_tJIKAAf1v-186" value="" style="rounded=0;whiteSpace=wrap;html=1;strokeColor=none;fillColor=#DE852C;strokeWidth=1;movable=1;resizable=1;rotatable=1;deletable=1;editable=1;locked=0;connectable=1;container=0;gradientDirection=east;fontColor=#000000;shadow=1;glass=0;" vertex="1" parent="q7dswaSPt2_tJIKAAf1v-172">
          <mxGeometry x="73" y="1.0499999999999972" width="2" height="13" as="geometry" />
        </mxCell>
        <mxCell id="q7dswaSPt2_tJIKAAf1v-187" value="" style="ellipse;whiteSpace=wrap;html=1;strokeColor=#000000;fillColor=#999999;fontColor=#ffffff;movable=1;resizable=1;rotatable=1;deletable=1;editable=1;locked=0;connectable=1;container=0;strokeWidth=0.1;" vertex="1" parent="q7dswaSPt2_tJIKAAf1v-172">
          <mxGeometry x="66.25" y="5.049999999999997" width="5" height="5" as="geometry" />
        </mxCell>
        <mxCell id="q7dswaSPt2_tJIKAAf1v-188" value="" style="ellipse;whiteSpace=wrap;html=1;strokeColor=none;fillColor=#111111;fontColor=#ffffff;movable=1;resizable=1;rotatable=1;deletable=1;editable=1;locked=0;connectable=1;container=0;strokeWidth=0.1;" vertex="1" parent="q7dswaSPt2_tJIKAAf1v-172">
          <mxGeometry x="67.25" y="5.9999999999999964" width="3" height="3" as="geometry" />
        </mxCell>
        <mxCell id="q7dswaSPt2_tJIKAAf1v-189" value="" style="endArrow=none;html=1;rounded=0;strokeWidth=0.4;strokeColor=#111111;exitX=0;exitY=0.5;exitDx=0;exitDy=0;entryX=1;entryY=0.5;entryDx=0;entryDy=0;" edge="1" parent="q7dswaSPt2_tJIKAAf1v-172" source="q7dswaSPt2_tJIKAAf1v-187" target="q7dswaSPt2_tJIKAAf1v-187">
          <mxGeometry width="50" height="50" relative="1" as="geometry">
            <mxPoint x="59.5" y="7.049999999999997" as="sourcePoint" />
            <mxPoint x="79.5" y="7.049999999999997" as="targetPoint" />
          </mxGeometry>
        </mxCell>
        <mxCell id="q7dswaSPt2_tJIKAAf1v-190" value="&lt;span style=&quot;font-size: 4px;&quot;&gt;&lt;font style=&quot;font-size: 4px;&quot;&gt;NVMe&lt;/font&gt;&lt;/span&gt;" style="text;html=1;align=center;verticalAlign=middle;whiteSpace=wrap;rounded=0;fontSize=4;fontStyle=3" vertex="1" parent="q7dswaSPt2_tJIKAAf1v-172">
          <mxGeometry x="2.5" y="1.9999999999999964" width="15" height="4" as="geometry" />
        </mxCell>
      </root>
    </mxGraphModel>
  </diagram>
</mxfile>
